<svg width="15" height="15" viewBox="0 0 15 15" fill="none" xmlns="http://www.w3.org/2000/svg">
<path d="M10.3955 10.3148C10.9397 10.2684 11.3597 9.78984 11.333 9.21844C11.3034 8.64703 10.8347 8.18859 10.2661 8.18859H10.2267C9.94354 8.19873 9.67598 8.32091 9.48286 8.52827C9.28974 8.73563 9.18688 9.01119 9.19688 9.29437C9.21609 9.59484 9.33797 9.83625 9.50672 10.0144C8.85 11.2889 7.86844 12.2245 6.37688 13.0125C5.37609 13.5352 4.31859 13.733 3.28875 13.5914C2.42672 13.4719 1.75313 13.0866 1.34063 12.4683C0.722345 11.5308 0.666095 10.5225 1.18172 9.50953C1.55719 8.77969 2.11922 8.24437 2.49234 7.98328C2.38019 7.66921 2.29289 7.34681 2.23125 7.01906C-0.541874 9.00422 -0.258749 11.7216 0.583595 13.0036C1.21125 13.9411 2.49234 14.5392 3.89625 14.5392C4.27266 14.5392 4.66547 14.5125 5.04891 14.4169C7.48594 13.9481 9.32906 12.488 10.3856 10.335L10.3955 10.3148ZM13.7377 7.9739C12.2878 6.26953 10.1513 5.33203 7.7175 5.33203H7.39734C7.24125 4.9875 6.87469 4.77094 6.46219 4.77094H6.43547C5.84484 4.77094 5.38547 5.27859 5.40469 5.86734C5.42484 6.42844 5.90016 6.89718 6.47156 6.89718H6.51844C6.72117 6.88894 6.91728 6.82268 7.08347 6.70627C7.24965 6.58986 7.37893 6.42819 7.45594 6.24047H7.80234C9.24563 6.24047 10.6106 6.66281 11.858 7.48594C12.81 8.11265 13.4963 8.93859 13.8792 9.92203C14.2162 10.725 14.1966 11.5139 13.8497 12.1706C13.3177 13.1981 12.4167 13.7423 11.2303 13.7423C10.4808 13.7423 9.75094 13.508 9.37453 13.3397C9.15 13.5253 8.77406 13.8352 8.50266 14.0236C9.32813 14.3967 10.1606 14.6119 10.9664 14.6119C12.7927 14.6119 14.1502 13.5839 14.6653 12.5906C15.2264 11.4675 15.1805 9.57515 13.747 7.95422L13.7377 7.9739ZM4.05516 10.6519C4.06797 10.9277 4.18592 11.1881 4.38478 11.3796C4.58363 11.5712 4.84829 11.6793 5.12438 11.6817H5.16141C5.30215 11.6784 5.44081 11.6469 5.56923 11.5892C5.69764 11.5315 5.81323 11.4487 5.90918 11.3457C6.00513 11.2427 6.07951 11.1215 6.12795 10.9893C6.17639 10.8571 6.19791 10.7166 6.19125 10.5759C6.19125 10.0139 5.70563 9.54515 5.13422 9.54515H5.09484C5.05875 9.54515 5.0025 9.54515 4.95375 9.56531C4.1775 8.25422 3.84984 6.84797 3.97172 5.33156C4.04531 4.18922 4.42125 3.19781 5.09484 2.37281C5.65688 1.67203 6.71344 1.32281 7.43625 1.30594C9.45797 1.26656 10.3027 3.78844 10.3664 4.78969L11.3039 5.07047C11.0864 1.99922 9.17766 0.388123 7.35141 0.388123C5.63766 0.388123 4.05516 1.63312 3.41813 3.45937C2.54859 5.8964 3.12 8.235 4.18688 10.11C4.09453 10.2295 4.03828 10.447 4.05516 10.6519Z" fill="black"/>
</svg>
