<svg width="15" height="15" viewBox="0 0 15 15" fill="none" xmlns="http://www.w3.org/2000/svg">
<path d="M11.0715 6.31055C11.4142 5.35547 12.4016 2.59277 12.4016 1.70801C12.4016 0.928711 11.9416 0.275391 11.1213 0.275391C9.81464 0.275391 8.64276 4.13379 8.27655 5.05371C7.99237 4.21875 6.6623 0 5.49042 0C4.57929 0 4.15155 0.670898 4.15155 1.51465C4.15155 2.54883 5.15351 5.22949 5.51679 6.26074C5.33222 6.19336 5.133 6.13477 4.93085 6.13477C4.2453 6.13477 3.51581 6.9873 3.51581 7.67578C3.51581 7.93652 3.65937 8.30273 3.75019 8.5459C2.66913 8.83887 2.25312 9.55957 2.25312 10.6465C2.25019 12.7617 4.25409 15 7.07245 15C10.5295 15 12.6799 12.4043 12.6799 9.05566C12.6799 7.79297 12.4777 6.65332 11.0715 6.31055V6.31055ZM10.0344 3.16406C10.1516 2.80371 10.6525 1.28027 11.1213 1.28027C11.3732 1.28027 11.4406 1.54102 11.4406 1.74902C11.4406 2.30859 10.3098 5.39941 10.0607 6.08496L9.06464 5.90918L10.0344 3.16406V3.16406ZM5.07148 1.41504C5.07148 1.06641 5.49628 0.0761718 6.42792 2.79492L7.44159 5.7334C6.98456 5.69531 6.63007 5.64551 6.40448 5.77441C6.08515 4.93066 5.07148 2.26758 5.07148 1.41504V1.41504ZM5.00409 7.14844C5.86249 7.14844 6.96991 9.91992 6.96991 10.2949C6.96991 10.4443 6.82636 10.6289 6.65937 10.6289C6.04706 10.6289 4.40644 8.37598 4.40644 7.7666C4.40937 7.54102 4.77851 7.14844 5.00409 7.14844V7.14844ZM10.4035 12.6064C9.55097 13.5439 8.46112 14.0303 7.18964 14.0303C5.44941 14.0303 4.07538 13.0752 3.41327 11.4434C2.9123 10.1719 3.5246 9.44238 4.01679 9.44238C4.35077 9.44238 5.60761 11.209 5.60761 11.584C5.60761 11.7275 5.38202 11.8271 5.26483 11.8271C4.79316 11.8271 4.60859 11.373 3.76776 10.3213C2.89765 11.1914 4.36835 12.8672 5.47577 12.8672C6.24042 12.8672 6.73847 12.1582 6.58905 11.6367C6.69745 11.6367 6.83222 11.6455 6.93183 11.6191C6.96405 12.4131 7.19843 13.3594 8.15351 13.4268C8.15351 13.4004 8.2121 13.2187 8.2121 13.21C8.2121 12.7002 7.90155 12.2549 7.90155 11.7363C7.90155 10.9072 8.5373 10.1045 9.18183 9.63574C9.4162 9.45996 9.70038 9.35156 9.97577 9.25195C10.26 9.14355 10.5617 9.01758 10.7785 8.80078C10.7463 8.47266 10.6115 8.18262 10.2834 8.18262C9.47187 8.18262 6.75019 8.2998 6.75019 7.01953C6.75019 6.82324 6.75312 6.63574 7.25995 6.63574C8.20624 6.63574 10.6086 6.87012 11.3117 7.48828C11.842 7.95996 12.0236 10.8047 10.4035 12.6064V12.6064ZM7.51484 8.91504C7.79901 9.00586 8.09198 9.03223 8.38495 9.09082C8.16816 9.24902 7.9748 9.44238 7.79023 9.65039C7.70819 9.40137 7.60859 9.1582 7.51484 8.91504V8.91504Z" fill="black"/>
</svg>
