<svg width="26" height="15" viewBox="0 0 26 15" fill="none" xmlns="http://www.w3.org/2000/svg">
<g clip-path="url(#clip0_405_35)">
<path d="M7.09824 5.4351C7.09824 5.74265 7.13157 5.99196 7.18971 6.1748C7.26352 6.38051 7.35238 6.58049 7.45559 6.77314C7.49716 6.83961 7.51373 6.90608 7.51373 6.96431C7.51373 7.04735 7.46392 7.13049 7.35588 7.21363L6.83235 7.56265C6.75755 7.61255 6.68275 7.63745 6.61618 7.63745C6.53314 7.63745 6.45 7.59588 6.36686 7.52108C6.2549 7.40074 6.15474 7.26995 6.06775 7.13049C5.98461 6.98931 5.90147 6.83127 5.8101 6.64019C5.16186 7.4047 4.34735 7.78706 3.36677 7.78706C2.66873 7.78706 2.11186 7.58755 1.70461 7.18872C1.29745 6.7897 1.08971 6.25784 1.08971 5.59304C1.08971 4.88666 1.33902 4.31323 1.84598 3.88108C2.35284 3.44892 3.02608 3.23284 3.88206 3.23284C4.16461 3.23284 4.45549 3.25774 4.76294 3.29931C5.07049 3.34088 5.38628 3.40735 5.71873 3.48216V2.87549C5.71873 2.24382 5.58569 1.80343 5.32804 1.54578C5.06216 1.28814 4.61333 1.16343 3.97343 1.16343C3.68255 1.16343 3.38343 1.19676 3.07588 1.27157C2.76843 1.34627 2.46922 1.43774 2.17833 1.55412C2.04539 1.61225 1.94569 1.64549 1.88745 1.66215C1.82931 1.67882 1.78775 1.68706 1.75451 1.68706C1.63814 1.68706 1.58 1.60392 1.58 1.42941V1.02215C1.58 0.889214 1.59667 0.789508 1.63814 0.731371C1.67971 0.673135 1.75451 0.614998 1.87088 0.556861C2.16177 0.407253 2.51078 0.282547 2.91794 0.182841C3.32529 0.0748019 3.75745 0.024998 4.21451 0.024998C5.20353 0.024998 5.92657 0.249312 6.39196 0.698135C6.84902 1.14686 7.08177 1.82833 7.08177 2.74255V5.4351H7.09843H7.09824ZM3.72412 6.69833C3.99843 6.69833 4.28098 6.64853 4.5801 6.54872C4.87931 6.44902 5.14529 6.26617 5.36961 6.01686C5.50265 5.85902 5.60235 5.68451 5.65216 5.485C5.70206 5.28559 5.73529 5.04451 5.73529 4.76196V4.41294C5.48327 4.3516 5.228 4.30443 4.97069 4.27166C4.71159 4.23876 4.45069 4.22209 4.18951 4.22176C3.63265 4.22176 3.22549 4.3298 2.95128 4.55421C2.67696 4.77863 2.54402 5.09441 2.54402 5.5099C2.54402 5.90049 2.64373 6.19137 2.85147 6.39088C3.05098 6.59863 3.34186 6.69833 3.72412 6.69833ZM10.3975 7.59588C10.2479 7.59588 10.1482 7.57098 10.0818 7.51274C10.0153 7.46294 9.95706 7.34657 9.90726 7.18872L7.95431 0.764606C7.90431 0.598331 7.87941 0.490292 7.87941 0.432155C7.87941 0.299214 7.94588 0.224312 8.07892 0.224312H8.89333C9.05118 0.224312 9.15931 0.249312 9.21745 0.307449C9.28392 0.357351 9.33382 0.473723 9.38363 0.631567L10.7798 6.13323L12.0763 0.631567C12.1178 0.46539 12.1677 0.357351 12.2341 0.307449C12.3007 0.257645 12.4171 0.22441 12.5667 0.22441H13.2315C13.3893 0.22441 13.4975 0.249312 13.5638 0.307449C13.6304 0.357351 13.6885 0.473723 13.7218 0.631567L15.0349 6.1997L16.4725 0.631567C16.5224 0.46539 16.5806 0.357351 16.6387 0.307449C16.7052 0.257645 16.8132 0.22441 16.9628 0.22441H17.7357C17.8687 0.22441 17.9435 0.29088 17.9435 0.432155C17.9435 0.473723 17.9352 0.515292 17.9269 0.565096C17.9185 0.614998 17.902 0.681469 17.8687 0.772939L15.8658 7.19696C15.816 7.36323 15.7578 7.47127 15.6913 7.52108C15.6248 7.57098 15.5168 7.60421 15.3756 7.60421H14.6609C14.5029 7.60421 14.3949 7.57931 14.3283 7.52108C14.2619 7.46294 14.2037 7.3549 14.1705 7.18872L12.8823 1.82833L11.6025 7.18029C11.561 7.34657 11.5111 7.45461 11.4446 7.51274C11.3781 7.57098 11.2618 7.59588 11.1123 7.59588H10.3975H10.3975ZM21.0767 7.82029C20.6445 7.82029 20.2124 7.77039 19.7969 7.67068C19.3813 7.57098 19.0573 7.46284 18.8412 7.33833C18.7081 7.26343 18.6167 7.18039 18.5835 7.10559C18.5512 7.03223 18.5342 6.95302 18.5336 6.87284V6.44902C18.5336 6.27451 18.6001 6.19137 18.7248 6.19137C18.7757 6.19156 18.8262 6.2 18.8744 6.21637C18.9242 6.23304 18.999 6.26617 19.0822 6.29941C19.3757 6.42852 19.6821 6.52603 19.9963 6.59029C20.3218 6.65636 20.6531 6.68976 20.9853 6.69C21.5088 6.69 21.9161 6.59863 22.1986 6.41578C22.4812 6.23294 22.6308 5.96706 22.6308 5.62627C22.6308 5.39363 22.556 5.20245 22.4064 5.04451C22.2568 4.88666 21.9742 4.74539 21.5671 4.61235L20.362 4.23843C19.7553 4.04725 19.3066 3.7647 19.0323 3.39068C18.758 3.025 18.6168 2.61784 18.6168 2.18568C18.6168 1.83666 18.6916 1.52912 18.8412 1.26314C18.9907 0.997253 19.1902 0.764606 19.4395 0.581763C19.6888 0.390586 19.9714 0.249312 20.3038 0.149606C20.6362 0.0498999 20.9852 0.0083313 21.3509 0.0083313C21.5337 0.0083313 21.7249 0.0166646 21.9077 0.0415666C22.0989 0.0664686 22.2734 0.0997038 22.4479 0.132939C22.6141 0.174508 22.7721 0.216076 22.9217 0.265978C23.0713 0.315782 23.1876 0.365684 23.2707 0.415488C23.3871 0.482057 23.4701 0.548527 23.52 0.623331C23.5699 0.689802 23.5948 0.781174 23.5948 0.897547V1.28814C23.5948 1.46265 23.5283 1.55412 23.4036 1.55412C23.3372 1.55412 23.2291 1.52078 23.0879 1.45431C22.6141 1.23823 22.0823 1.13019 21.4923 1.13019C21.0185 1.13019 20.6445 1.205 20.3869 1.36294C20.1293 1.52078 19.9963 1.76186 19.9963 2.10255C19.9963 2.33529 20.0794 2.5347 20.2456 2.69265C20.4119 2.85049 20.7193 3.00843 21.1598 3.1497L22.3399 3.52372C22.9382 3.7149 23.3704 3.98078 23.628 4.32147C23.8857 4.66225 24.0104 5.05284 24.0104 5.485C24.0104 5.84235 23.9355 6.16647 23.7942 6.44902C23.6447 6.73157 23.4452 6.98088 23.1876 7.18039C22.9299 7.38814 22.6225 7.53774 22.2651 7.64578C21.8911 7.76216 21.5005 7.82029 21.0767 7.82029V7.82029Z" fill="#252F3E"/>
<path d="M22.6474 11.8592C19.9132 13.8787 15.9407 14.9508 12.5251 14.9508C7.73814 14.9508 3.425 13.1806 0.167255 10.2386C-0.0903924 10.006 0.142255 9.6902 0.449706 9.87294C3.97343 11.9175 8.3199 13.1557 12.816 13.1557C15.8493 13.1557 19.1819 12.5241 22.2485 11.2276C22.7056 11.0198 23.0962 11.5269 22.6474 11.8592V11.8592ZM23.786 10.5627C23.437 10.114 21.4756 10.3467 20.5864 10.4547C20.3204 10.488 20.2788 10.2553 20.5199 10.0808C22.0823 8.98372 24.6503 9.29961 24.9494 9.6652C25.2486 10.0392 24.8663 12.6072 23.4036 13.8372C23.1793 14.0283 22.9632 13.9286 23.0629 13.6793C23.3953 12.8565 24.135 11.0032 23.786 10.5627V10.5627Z" fill="#FF9900"/>
</g>
<defs>
<clipPath id="clip0_405_35">
<rect width="25.1" height="15" fill="white"/>
</clipPath>
</defs>
</svg>
