<svg width="17" height="15" viewBox="0 0 17 15" fill="none" xmlns="http://www.w3.org/2000/svg">
<g clip-path="url(#clip0_405_18)">
<path d="M13.9515 4.85683C13.7723 4.79534 13.5915 4.73837 13.4094 4.68598C13.44 4.56098 13.4681 4.43749 13.4931 4.31617C13.9035 2.324 13.6352 0.719067 12.7189 0.190646C11.8402 -0.315933 10.4033 0.212291 8.95215 1.47525C8.80913 1.59994 8.66928 1.72823 8.53274 1.85999C8.44134 1.77237 8.34832 1.68646 8.25373 1.60229C6.73281 0.251897 5.20834 -0.317248 4.29294 0.212686C3.41511 0.720844 3.15518 2.22959 3.52465 4.11762C3.56141 4.30461 3.60291 4.49063 3.64913 4.67551C3.43334 4.73683 3.22511 4.80209 3.02584 4.87157C1.24268 5.49328 0.103928 6.46755 0.103928 7.47815C0.103928 8.5219 1.32643 9.56881 3.18366 10.2036C3.33423 10.2549 3.48606 10.3024 3.63899 10.346C3.58932 10.5452 3.54523 10.7456 3.50676 10.9472C3.15452 12.8025 3.42959 14.2756 4.30505 14.7805C5.20926 15.302 6.72689 14.766 8.20459 13.4743C8.32441 13.3692 8.4416 13.2613 8.55603 13.1504C8.7039 13.2931 8.85571 13.4316 9.0113 13.5658C10.4427 14.7975 11.8564 15.2949 12.731 14.7885C13.6344 14.2656 13.928 12.6831 13.5468 10.7578C13.5168 10.6069 13.4831 10.4568 13.4458 10.3076C13.5524 10.276 13.657 10.2435 13.759 10.2097C15.6898 9.57006 16.946 8.53584 16.946 7.47815C16.946 6.46387 15.7705 5.48301 13.9515 4.85683V4.85683ZM13.5327 9.52683C13.4406 9.55729 13.3462 9.5867 13.2498 9.61532C13.0367 8.94052 12.7491 8.22302 12.397 7.48163C12.7329 6.75795 13.0095 6.04959 13.2167 5.3792C13.389 5.42907 13.5562 5.48163 13.7173 5.53709C15.2759 6.07367 16.2266 6.8669 16.2266 7.47815C16.2266 8.1292 15.1998 8.9744 13.5327 9.52683V9.52683ZM12.841 10.8975C13.0096 11.7488 13.0336 12.5185 12.922 13.1203C12.8217 13.661 12.62 14.0215 12.3705 14.1659C11.8398 14.4731 10.7047 14.0738 9.48057 13.0204C9.33586 12.8956 9.19464 12.7668 9.05709 12.6342C9.53169 12.1152 10.006 11.5118 10.4689 10.8417C11.2831 10.7695 12.0523 10.6513 12.7498 10.4901C12.7835 10.6251 12.8139 10.761 12.841 10.8975V10.8975ZM5.84577 14.1128C5.32722 14.2959 4.91419 14.3012 4.66452 14.1572C4.13327 13.8508 3.91241 12.668 4.21366 11.0814C4.24947 10.894 4.29048 10.7075 4.33662 10.5223C5.02649 10.6749 5.79011 10.7847 6.60623 10.8508C7.07228 11.5066 7.56024 12.1093 8.05202 12.637C7.94751 12.7382 7.84053 12.8367 7.73116 12.9326C7.07768 13.5037 6.42288 13.909 5.84577 14.1128V14.1128ZM3.41643 9.52282C2.59518 9.24209 1.91695 8.87729 1.45209 8.4792C1.03432 8.1215 0.823467 7.7663 0.823467 7.47815C0.823467 6.86486 1.73774 6.08262 3.26268 5.55098C3.44774 5.4865 3.64143 5.42565 3.84241 5.36854C4.0532 6.05407 4.32965 6.77084 4.66327 7.49565C4.32531 8.23117 4.04491 8.9594 3.83209 9.65302C3.69249 9.61303 3.55389 9.56962 3.41643 9.52282V9.52282ZM4.23077 3.9794C3.91426 2.36183 4.12445 1.14163 4.65347 0.835383C5.21689 0.509199 6.46281 0.974265 7.77603 2.14032C7.86167 2.21653 7.94591 2.29428 8.02873 2.37354C7.53939 2.899 7.0559 3.49723 6.59399 4.14907C5.80189 4.22249 5.04366 4.34038 4.34656 4.49834C4.30361 4.32638 4.265 4.15337 4.23077 3.97946V3.9794ZM11.4957 5.77334C11.331 5.48893 11.1603 5.2081 10.9835 4.93104C11.5209 4.999 12.0358 5.0892 12.5193 5.19946C12.3741 5.66473 12.1932 6.15111 11.9802 6.64979C11.8246 6.35445 11.663 6.06224 11.4957 5.77334V5.77334ZM8.53307 2.88775C8.86491 3.24729 9.19728 3.64867 9.52419 4.0842C8.86103 4.05288 8.19677 4.05275 7.5336 4.0838C7.86084 3.65229 8.19603 3.25144 8.53307 2.88775ZM5.55143 5.77828C5.38619 6.06485 5.22766 6.35523 5.07597 6.6492C4.86649 6.15229 4.68722 5.66367 4.54084 5.19183C5.02136 5.08433 5.5338 4.99644 6.06774 4.92973C5.88902 5.20847 5.71687 5.49138 5.55143 5.77821V5.77828ZM6.08307 10.0778C5.53143 10.0162 5.0113 9.93282 4.5309 9.82821C4.67959 9.34795 4.86281 8.84894 5.07682 8.34137C5.22911 8.63556 5.3883 8.92612 5.55426 9.21282C5.72491 9.50756 5.90163 9.79624 6.08307 10.0778ZM8.55294 12.1192C8.21189 11.7513 7.87176 11.3443 7.53959 10.9065C7.86209 10.9191 8.19084 10.9256 8.52498 10.9256C8.86827 10.9256 9.20761 10.9179 9.54163 10.903C9.21366 11.3487 8.88255 11.7563 8.55294 12.1192ZM11.987 8.31545C12.2122 8.82861 12.4019 9.32499 12.5525 9.79703C12.0643 9.90848 11.537 9.99821 10.9815 10.0649C11.1595 9.78266 11.3319 9.49694 11.4985 9.20788C11.668 8.91407 11.8308 8.61651 11.987 8.31545V8.31545ZM10.8753 8.84841C10.6202 9.29159 10.3507 9.72636 10.0673 10.152C9.55403 10.1884 9.03958 10.2064 8.52498 10.2062C8.00084 10.2062 7.49103 10.1899 7.00011 10.158C6.70934 9.73333 6.43473 9.2978 6.17689 8.85236H6.17695C5.92032 8.40927 5.68061 7.9566 5.45834 7.49532C5.68004 7.03393 5.91903 6.58104 6.17478 6.13762L6.17472 6.13769C6.43037 5.69415 6.70279 5.26048 6.99136 4.83762C7.49222 4.79973 8.00584 4.77999 8.52491 4.77999H8.52498C9.04643 4.77999 9.5607 4.79992 10.0614 4.83808C10.3471 5.26031 10.6178 5.69248 10.8729 6.1338C11.1295 6.57625 11.3717 7.02693 11.599 7.48512C11.374 7.948 11.1326 8.40272 10.8753 8.84841V8.84841ZM12.3595 0.813936C12.9235 1.1392 13.1428 2.45084 12.7885 4.17091C12.7658 4.28065 12.7404 4.39242 12.7128 4.50578C12.014 4.34446 11.2552 4.22453 10.4608 4.14999C9.99807 3.49098 9.51853 2.89183 9.03715 2.37315C9.16331 2.25154 9.29247 2.13308 9.42452 2.01788C10.6679 0.935844 11.83 0.508607 12.3595 0.813936V0.813936ZM8.52498 5.9742C9.35557 5.9742 10.0289 6.64755 10.0289 7.47815C10.0289 8.30874 9.35557 8.98209 8.52498 8.98209C7.69439 8.98209 7.02103 8.30874 7.02103 7.47815C7.02103 6.64755 7.69439 5.9742 8.52498 5.9742V5.9742Z" fill="#00D8FF"/>
</g>
<defs>
<clipPath id="clip0_405_18">
<rect width="16.85" height="15" fill="white" transform="translate(0.0999756)"/>
</clipPath>
</defs>
</svg>
