<svg width="15" height="15" viewBox="0 0 15 15" fill="none" xmlns="http://www.w3.org/2000/svg">
<path d="M0 7.5V15H15V0H0V7.5Z" fill="#007ACC"/>
<path d="M3.31711 7.54979L3.31236 8.16403H5.26471V13.7117H6.64564V8.16403H8.59805V7.56168C8.59805 7.22829 8.5909 6.94973 8.58141 6.94258C8.57426 6.93309 7.38609 6.92829 5.94568 6.93069L3.3242 6.93784L3.31711 7.54973V7.54979ZM12.1035 6.92038C12.4845 7.01559 12.775 7.18463 13.0416 7.46084C13.1797 7.6085 13.3845 7.8775 13.4012 7.94178C13.4058 7.96082 12.7535 8.39893 12.3583 8.6442C12.344 8.6537 12.2868 8.59182 12.2225 8.49655C12.0297 8.21559 11.8273 8.09418 11.5178 8.07274C11.0631 8.0418 10.7702 8.27987 10.7726 8.67748C10.7726 8.7942 10.7892 8.86323 10.8369 8.95844C10.9369 9.16563 11.1226 9.28944 11.7059 9.5418C12.7797 10.0037 13.2392 10.3084 13.525 10.7418C13.844 11.2251 13.9154 11.9966 13.6988 12.5704C13.4607 13.1942 12.8702 13.618 12.0392 13.7584C11.7821 13.8037 11.1726 13.7965 10.8964 13.7465C10.294 13.6394 9.72258 13.3418 9.37019 12.9513C9.23209 12.799 8.96303 12.4013 8.97973 12.3728C8.98687 12.3632 9.04875 12.3251 9.11777 12.2846C9.18445 12.2465 9.43687 12.1013 9.67494 11.9632L10.1059 11.7132L10.1964 11.8466C10.3226 12.0394 10.5987 12.3037 10.7654 12.3918C11.244 12.6442 11.9012 12.6085 12.2249 12.318C12.363 12.1918 12.4202 12.0609 12.4202 11.868C12.4202 11.6942 12.3987 11.618 12.3083 11.4871C12.1917 11.3204 11.9535 11.1799 11.2773 10.8871C10.5035 10.5537 10.1702 10.3466 9.86543 10.018C9.68924 9.82756 9.52254 9.52276 9.45351 9.26799C9.39639 9.05606 9.38203 8.52514 9.42732 8.31086C9.58687 7.56321 10.1511 7.04178 10.9654 6.88704C11.2297 6.83706 11.844 6.8561 12.1035 6.92038V6.92038Z" fill="white"/>
</svg>
