<svg width="20" height="15" viewBox="0 0 20 15" fill="none" xmlns="http://www.w3.org/2000/svg">
<g clip-path="url(#clip0_405_74)">
<path d="M4.52373 14.9262V7.23887L2.13967 5.05781L0.0018158 3.84747V13.5696C0.0018158 14.3202 0.609976 14.9262 1.35842 14.9262H4.52373V14.9262Z" fill="#4285F4"/>
<path d="M15.3763 14.9262H18.5416C19.2923 14.9262 19.8982 14.3179 19.8982 13.5696V3.84753L17.4767 5.23383L15.3763 7.23886V14.9262V14.9262Z" fill="#34A853"/>
<path d="M4.52373 7.23886L4.19933 4.23521L4.52373 1.36041L9.95 5.43015L15.3763 1.36041L15.7391 4.08L15.3763 7.23886L9.95 11.3086L4.52373 7.23886Z" fill="#EA4335"/>
<path d="M15.3763 1.36042V7.23887L19.8982 3.84747V2.03869C19.8982 0.361095 17.9832 -0.595253 16.6425 0.410835L15.3763 1.36042Z" fill="#FBBC04"/>
<path d="M0.0018158 3.84747L2.08153 5.40732L4.52373 7.23887V1.36043L3.25752 0.410841C1.91451 -0.595325 0.0018158 0.3611 0.0018158 2.03861V3.84739V3.84747Z" fill="#C5221F"/>
</g>
<defs>
<clipPath id="clip0_405_74">
<rect width="19.9" height="15" fill="white"/>
</clipPath>
</defs>
</svg>
