<svg width="15" height="15" viewBox="0 0 15 15" fill="none" xmlns="http://www.w3.org/2000/svg">
<path d="M0 0H15V15H0V0Z" fill="#F7DF1E"/>
<path d="M3.94406 12.5351L5.09191 11.8404C5.3134 12.233 5.51484 12.5653 5.99806 12.5653C6.46125 12.5653 6.75334 12.3841 6.75334 11.6793V6.88647H8.16293V11.6992C8.16293 13.1592 7.30711 13.8238 6.05847 13.8238C4.93084 13.8238 4.27629 13.2398 3.944 12.535L3.94406 12.5351ZM8.92857 12.384L10.0763 11.7195C10.3785 12.2129 10.7712 12.5754 11.4659 12.5754C12.05 12.5754 12.4224 12.2834 12.4224 11.8806C12.4224 11.3973 12.0398 11.2261 11.3954 10.9443L11.043 10.7931C10.026 10.3603 9.35144 9.81651 9.35144 8.66866C9.35144 7.61139 10.1569 6.80585 11.4156 6.80585C12.3117 6.80585 12.9561 7.11803 13.4193 7.9336L12.3217 8.63848C12.08 8.20553 11.8183 8.03438 11.4155 8.03438C11.0027 8.03438 10.7409 8.29618 10.7409 8.63848C10.7409 9.06135 11.0027 9.23262 11.6068 9.49442L11.9592 9.64542C13.1574 10.159 13.832 10.6825 13.832 11.8605C13.832 13.1293 12.8352 13.824 11.496 13.824C10.1871 13.824 9.34131 13.1997 8.92851 12.3841" fill="black"/>
</svg>
