<svg width="25" height="25" viewBox="0 0 12 15" fill="none" xmlns="http://www.w3.org/2000/svg">
<g clip-path="url(#clip0_405_42)">
<path d="M11.2 2.94043L10.2343 13.7587L5.89347 14.9621L1.56458 13.7604L0.599886 2.94043H11.2Z" fill="#E44D26"/>
<path d="M5.89996 14.0422L9.40759 13.0698L10.2328 3.82507H5.89996V14.0422Z" fill="#F16529"/>
<path d="M4.02267 6.47918H5.89996V5.15216H2.57241L2.60415 5.50817L2.93033 9.1651H5.89996V7.83807H4.14396L4.02267 6.47918V6.47918ZM4.32176 9.82863H2.98962L3.17552 11.9123L5.89385 12.6668L5.89996 12.6652V11.2845L5.89414 11.286L4.41624 10.887L4.32176 9.82863Z" fill="#EBEBEB"/>
<path d="M1.58611 0H2.26048V0.666274H2.87739V0H3.55181V2.01765H2.87743V1.34202H2.26052V2.01765H1.58615V0H1.58611ZM4.4386 0.6691H3.845V0H5.70707V0.6691H5.1131V2.01765H4.43872V0.6691H4.43868H4.4386ZM6.00259 0H6.70576L7.13831 0.708947L7.57044 0H8.2739V2.01765H7.60227V1.01759L7.13831 1.73497H7.12667L6.66242 1.01759V2.01765H6.00259V0ZM8.60951 0H9.2841V1.35075H10.2325V2.01765H8.60947V0H8.60951Z" fill="black"/>
<path d="M5.89539 9.1651H7.52947L7.3754 10.8862L5.89534 11.2856V12.6662L8.61583 11.9123L8.63577 11.688L8.94766 8.19442L8.98003 7.83807H5.89539V9.1651ZM5.89539 6.47594V6.47918H9.10077L9.12737 6.18093L9.18786 5.50817L9.21957 5.15216H5.89539V6.47598V6.47594Z" fill="white"/>
</g>
<defs>
<clipPath id="clip0_405_42">
<rect width="25" height="25" fill="white" transform="translate(0.579956)"/>
</clipPath>
</defs>
</svg>
