<svg width="12" height="15" viewBox="0 0 12 15" fill="none" xmlns="http://www.w3.org/2000/svg">
<g clip-path="url(#clip0_405_8)">
<path d="M3.5798 11.5957C3.5798 11.5957 3.00764 11.9284 3.98702 12.041C5.17353 12.1763 5.77991 12.157 7.08746 11.9095C7.08746 11.9095 7.43125 12.125 7.91129 12.3117C4.98018 13.5679 1.27752 12.2389 3.5798 11.5957V11.5957ZM3.22163 9.95633C3.22163 9.95633 2.57988 10.4314 3.55999 10.5327C4.82745 10.6635 5.82837 10.6742 7.5604 10.3407C7.5604 10.3407 7.79996 10.5836 8.17665 10.7164C4.63271 11.7527 0.685412 10.7981 3.22163 9.95633" fill="#5382A1"/>
<path d="M6.24112 7.17551C6.96338 8.00701 6.05137 8.75528 6.05137 8.75528C6.05137 8.75528 7.88523 7.80859 7.04302 6.62307C6.25643 5.51758 5.65317 4.96821 8.9188 3.07431C8.9188 3.07431 3.79287 4.35451 6.24112 7.17547" fill="#E76F00"/>
<path d="M10.1178 12.8082C10.1178 12.8082 10.5412 13.157 9.65146 13.427C7.95958 13.9395 2.60961 14.0943 1.12339 13.4474C0.58916 13.215 1.59104 12.8925 1.90617 12.8248C2.23482 12.7535 2.42267 12.7668 2.42267 12.7668C1.82852 12.3482 -1.41763 13.5886 0.773799 13.9438C6.75008 14.913 11.668 13.5074 10.1178 12.8082ZM3.85491 8.25781C3.85491 8.25781 1.13363 8.9042 2.89127 9.13887C3.63338 9.23823 5.11279 9.21578 6.49084 9.10029C7.61705 9.00534 8.7479 8.80332 8.7479 8.80332C8.7479 8.80332 8.35079 8.97339 8.06349 9.16956C5.30003 9.89637 -0.038499 9.55826 1.49839 8.81481C2.79815 8.18654 3.85495 8.25781 3.85495 8.25781H3.85491ZM8.73667 10.9865C11.5459 9.52674 10.247 8.12394 9.34045 8.31296C9.11822 8.35917 9.01916 8.39923 9.01916 8.39923C9.01916 8.39923 9.10166 8.27004 9.2592 8.21411C11.0527 7.58355 12.432 10.0738 8.68023 11.0601C8.68023 11.0601 8.72371 11.0213 8.73667 10.9865Z" fill="#5382A1"/>
<path d="M7.04301 0.0160956C7.04301 0.0160956 8.59881 1.57245 5.56742 3.96556C3.1366 5.8853 5.01312 6.97987 5.56642 8.23046C4.14749 6.95026 3.10616 5.82326 3.80479 4.77439C4.83012 3.23464 7.67072 2.48815 7.04301 0.0160522" fill="#E76F00"/>
<path d="M4.13098 14.9421C6.82747 15.1147 10.9682 14.8463 11.0663 13.5704C11.0663 13.5704 10.8778 14.0542 8.83777 14.4383C6.53627 14.8714 3.69771 14.8208 2.01411 14.5432C2.01416 14.5432 2.35877 14.8285 4.13102 14.9421" fill="#5382A1"/>
</g>
<defs>
<clipPath id="clip0_405_8">
<rect width="11.1" height="15" fill="white"/>
</clipPath>
</defs>
</svg>
