<svg width="67" height="15" viewBox="0 0 67 15" fill="none" xmlns="http://www.w3.org/2000/svg">
<g clip-path="url(#clip0_406_84)">
<path fill-rule="evenodd" clip-rule="evenodd" d="M63.3572 1.11801L66.127 1.13327C66.127 1.13327 60.9774 8.11137 60.5568 8.68008C60.4203 8.86422 60.2129 9.06284 60.1076 9.30905C59.8416 9.92792 59.5685 11.2856 59.5685 11.2856L57.0342 11.2982C57.0342 11.2982 57.4286 9.88305 57.4123 9.1293C57.398 8.47086 57.0618 7.81318 56.8733 7.1528C56.6827 6.48426 56.424 5.17616 56.424 5.17616H59.0296L59.3889 6.6137L63.3572 1.11801" fill="#1A1918"/>
<path fill-rule="evenodd" clip-rule="evenodd" d="M58.1122 2.58971C58.6234 2.89785 58.9371 4.59777 58.9371 4.59777C58.9371 4.59777 56.2624 4.63721 54.8069 4.63721H53.5491L52.0217 11.2856H49.6858C49.6858 11.2856 51.1396 4.06048 51.4827 2.75057C51.5939 2.32643 52.2446 2.39923 53.3434 2.39923H55.098C56.231 2.39923 57.5553 2.25453 58.1122 2.58971V2.58971ZM47.2376 5.82764C47.2376 5.82764 47.3104 5.40091 46.9906 4.90669C46.7174 4.48539 46.4651 4.38738 45.7463 4.36488C43.7167 4.30113 43.7562 5.80514 43.7562 5.80514L47.2376 5.82764ZM49.4387 4.10522C49.7361 5.17811 49.1692 7.69902 49.1692 7.69902C49.1692 7.69902 46.2088 7.64962 44.5873 7.69902C44.0831 7.7144 43.4796 7.64419 43.3295 7.87876C43.1183 8.20746 43.4067 8.71346 43.6511 8.92721C43.9323 9.17328 44.4802 9.20134 44.6771 9.2263C45.9933 9.3935 48.7478 9.26949 48.7478 9.26949L48.2707 11.3824C48.2707 11.3824 44.378 11.5777 42.431 11.1129C42.0466 11.0214 41.6862 10.8363 41.4427 10.574C41.3762 10.5022 41.3186 10.4043 41.2557 10.3197C41.2055 10.2522 41.0592 10.0305 40.9935 9.85514C40.5488 8.67014 41.0456 6.39996 41.5326 5.18341C41.5891 5.04246 41.6601 4.86363 41.7348 4.71169C41.8282 4.52225 41.9072 4.30837 41.9818 4.19509C42.032 4.11699 42.0942 4.06669 42.1463 3.99298C42.2064 3.90583 42.2764 3.82139 42.3411 3.746C42.5209 3.53755 42.7248 3.39014 42.9701 3.20703C43.7813 2.59953 45.2493 2.12794 47.013 2.30845C47.677 2.37673 48.6798 2.61389 49.1692 3.29677C49.3004 3.4791 49.3652 3.84117 49.4387 4.10535V4.10522ZM38.725 2.39096L40.99 2.37764C40.99 2.37764 39.7277 8.36561 39.0843 11.2856H36.4787C34.6578 11.2856 33.0361 11.5111 32.3461 10.2074C31.6768 8.94156 32.3156 6.85992 32.6156 5.44565C32.8277 4.44479 33.2743 2.3991 33.2743 2.3991L35.621 2.37764C35.621 2.37764 34.9579 5.56255 34.682 7.15281C34.5832 7.72242 34.3794 8.2588 34.5922 8.67996C34.7943 9.08083 35.0774 9.10953 35.9398 9.12932C36.213 9.13578 37.1078 9.12932 37.1078 9.12932L38.725 2.39096V2.39096ZM28.1235 6.70345C28.3606 5.86087 28.7065 4.94716 28.6626 4.18785C28.615 3.37578 27.934 2.63639 27.4946 2.48096C26.1713 2.01376 24.9324 2.6669 24.4399 3.19966C23.803 3.88966 23.5873 4.69565 23.3617 5.80527C23.1939 6.62897 23.0563 7.49858 23.3617 8.141C23.9025 9.27673 25.589 9.02871 27.4048 9.03958C27.6742 8.31725 27.8971 7.50595 28.1235 6.70345V6.70345ZM31.268 3.3794C31.5267 5.26061 30.5341 7.33708 29.8503 9.14277C30.5475 9.20574 31.1585 9.13307 31.2025 9.18505C31.2483 9.25242 30.7352 11.3404 30.5563 11.3458C30.003 11.3602 28.1694 11.3754 27.4048 11.3754C24.9097 11.3754 22.5757 11.538 21.3854 10.2974C20.902 9.79333 20.5677 8.92889 20.4868 8.32074C20.352 7.30552 20.5209 6.18777 20.7564 5.26617C20.9694 4.43406 21.2424 3.64889 21.6549 2.93005C22.7033 1.10005 24.5271 -0.258355 27.5844 0.0552225C28.1774 0.116257 29.029 0.375912 29.561 0.684059C29.5977 0.705653 29.7264 0.808067 29.7559 0.826041C30.4747 1.28341 31.1297 2.37492 31.268 3.3794V3.3794ZM20.2289 2.40182C20.078 3.0891 19.9271 3.8682 19.7681 4.54733H17.2525C17.4474 3.79449 17.5966 3.04604 17.7916 2.39108C18.5965 2.39108 19.345 2.40182 20.2291 2.40182H20.2289ZM17.1626 5.1763H19.5885C19.2713 6.93182 18.6432 9.76358 18.1509 11.7348C17.8428 12.9684 17.6371 13.8685 16.8033 14.5199C16.7286 14.5783 16.6856 14.5505 16.6235 14.6097C16.4699 14.7563 15.7592 14.9262 15.3658 14.9691C14.7261 15.0384 14.0029 14.9782 13.2167 14.962C13.4224 14.21 13.6552 13.3071 13.8386 12.6331C15.7549 12.8651 15.8034 11.0537 16.1744 9.30906C16.3891 8.30095 17.0396 5.58052 17.1626 5.1763" fill="#1A1918"/>
<path fill-rule="evenodd" clip-rule="evenodd" d="M11.5024 9.75839L11.4505 9.893C10.5647 11.618 8.99499 12.6764 6.75611 12.7231C5.70947 12.7446 4.71223 12.4761 4.06076 12.184C2.6549 11.5526 1.47236 10.381 0.826582 9.12943C-0.0997971 7.33524 -0.266866 4.8393 1.65934 2.97516C1.68908 2.97516 1.42568 3.37938 1.45542 3.37938L1.4024 3.55188C0.0143839 7.89762 4.29081 11.6216 8.44787 11.1957C9.44693 11.0934 10.7209 10.5463 11.5024 9.75839Z" fill="#21609B"/>
<path fill-rule="evenodd" clip-rule="evenodd" d="M8.98684 7.96138C10.0327 7.96862 11.1251 7.47983 11.7721 6.79345C11.2061 8.23008 9.56732 9.15362 7.36982 8.85983C5.52973 8.61362 3.77693 6.76202 3.59641 4.90681C3.46439 3.55642 3.93495 2.75056 4.71042 1.7731C4.44094 2.28427 4.34021 2.67866 4.31512 2.93017C4.02055 5.85103 6.6484 7.94612 8.98684 7.96138" fill="#21609B"/>
<path fill-rule="evenodd" clip-rule="evenodd" d="M11.6669 4.33357C11.5044 4.70651 10.5683 5.41073 10.1549 5.49866C8.51796 5.84741 7.46964 5.07116 6.92046 4.18797C6.83887 4.05595 6.68796 3.69569 6.66093 3.60401C6.44796 2.87987 6.54585 1.78461 7.18115 1.21771C6.98977 1.75694 6.96184 2.38293 7.06257 2.79C7.12361 3.0362 7.30956 3.46577 7.49563 3.73603C7.83417 4.22845 8.04882 4.34806 8.48382 4.60939C8.67973 4.72707 8.88986 4.82146 8.98063 4.84745C9.393 4.96875 10.2637 5.28866 11.6671 4.33357" fill="#21609B"/>
</g>
<defs>
<clipPath id="clip0_406_84">
<rect width="66.21" height="15" fill="white" transform="translate(0.0300293)"/>
</clipPath>
</defs>
</svg>
