<svg width="15" height="15" viewBox="0 0 15 15" fill="none" xmlns="http://www.w3.org/2000/svg">
<g clip-path="url(#clip0_405_67)">
<path d="M14.4914 8.98217C14.4042 8.71802 14.1757 8.53405 13.8802 8.4899C13.7409 8.4691 13.5814 8.47797 13.3926 8.51689C13.0635 8.58479 12.8193 8.61064 12.6411 8.61564C13.3137 7.48013 13.8606 6.18524 14.1754 4.96632C14.6845 2.99535 14.4124 2.09746 14.0945 1.69132C13.2532 0.61632 12.0258 0.0388197 10.545 0.0211493C9.75506 0.0114902 9.06159 0.167456 8.69983 0.279615C8.36301 0.220183 8.00086 0.187002 7.62086 0.180865C6.90853 0.169502 6.27915 0.324786 5.74137 0.643933C5.44364 0.543252 4.9658 0.40132 4.41398 0.310752C3.11614 0.0976833 2.07012 0.263706 1.305 0.804217C0.378526 1.45865 -0.0509629 2.59569 0.028469 4.18376C0.0536962 4.68797 0.335742 6.22206 0.779833 7.67694C1.03506 8.51319 1.30722 9.20763 1.58875 9.74115C1.98801 10.4977 2.41523 10.9432 2.89483 11.1032C3.16364 11.1927 3.65205 11.2555 4.16574 10.8276C4.23086 10.9065 4.31773 10.9848 4.43301 11.0576C4.57944 11.15 4.75847 11.2254 4.93728 11.2701C5.58165 11.4312 6.18523 11.3909 6.70017 11.1651C6.70336 11.2567 6.7058 11.3442 6.70784 11.4198C6.71125 11.5423 6.71466 11.6625 6.71915 11.7749C6.74966 12.5348 6.80137 13.1256 6.95455 13.539C6.96296 13.5618 6.97426 13.5964 6.9862 13.6332C7.06262 13.8672 7.1904 14.2589 7.51551 14.5656C7.85216 14.8834 8.25938 14.9809 8.63233 14.9809C8.81938 14.9809 8.99784 14.9563 9.15438 14.9228C9.71233 14.8032 10.346 14.621 10.8044 13.9683C11.2378 13.3513 11.4485 12.4219 11.4867 10.9575C11.4916 10.9161 11.4961 10.8765 11.5005 10.8389L11.5096 10.7615L11.6117 10.7705L11.638 10.7722C12.2063 10.7981 12.9012 10.6776 13.328 10.4794C13.6652 10.3229 14.7458 9.7524 14.4914 8.98217" fill="black"/>
<path d="M13.5197 9.13192C11.8299 9.4805 11.7137 8.9084 11.7137 8.9084C13.4978 6.26107 14.2436 2.90067 13.6001 2.07823C11.8442 -0.16524 8.80466 0.895783 8.75392 0.923283L8.73762 0.926237C8.40375 0.856919 8.03017 0.815669 7.61023 0.808794C6.84569 0.796294 6.26569 1.00925 5.82557 1.343C5.82557 1.343 0.403413 -0.890751 0.655629 4.15232C0.709265 5.22516 2.19336 12.2701 3.96347 10.1422C4.61046 9.36408 5.23563 8.70618 5.23563 8.70618C5.54608 8.91243 5.91779 9.01766 6.30745 8.97987L6.33773 8.95419C6.3283 9.05078 6.33262 9.14527 6.34983 9.25715C5.89381 9.76664 6.02784 9.85607 5.11625 10.0437C4.19381 10.2339 4.73569 10.5723 5.08949 10.6608C5.51841 10.768 6.51069 10.9199 7.18114 9.98135L7.15444 10.0885C7.33307 10.2316 7.45853 11.0193 7.4375 11.7335C7.41648 12.4475 7.40245 12.9378 7.54319 13.3208C7.68404 13.7037 7.82432 14.5654 9.02273 14.3086C10.024 14.094 10.543 13.5379 10.6152 12.6103C10.6664 11.9509 10.7823 12.0484 10.7896 11.4588L10.8826 11.1797C10.9898 10.2858 10.8997 9.99737 11.5165 10.1315L11.6665 10.1447C12.1205 10.1653 12.7148 10.0716 13.0636 9.90953C13.8147 9.56101 14.2601 8.97902 13.5196 9.13192H13.5197" fill="#336791"/>
<path d="M6.14295 4.6321C5.99068 4.6109 5.85278 4.6305 5.78301 4.68335C5.74381 4.71306 5.73165 4.74749 5.72835 4.77119C5.7196 4.83397 5.76358 4.9034 5.79062 4.9392C5.8671 5.04056 5.97881 5.11022 6.08937 5.12556C6.1054 5.12783 6.12136 5.12886 6.13721 5.12886C6.32159 5.12886 6.48926 4.98528 6.50403 4.87931C6.5225 4.74658 6.32983 4.65812 6.14295 4.63215V4.6321ZM11.1875 4.6363C11.173 4.53227 10.9878 4.50261 10.8122 4.52704C10.6367 4.55147 10.4666 4.63067 10.4808 4.73494C10.4922 4.81602 10.6386 4.95442 10.8119 4.95442C10.8265 4.95442 10.8413 4.95346 10.8562 4.95136C10.9719 4.93533 11.0568 4.86187 11.0971 4.81954C11.1585 4.75499 11.194 4.68306 11.1875 4.6363" fill="white"/>
<path d="M14.0819 9.09232C14.0175 8.89749 13.8101 8.83482 13.4656 8.90596C12.4426 9.11709 12.0762 8.97085 11.9559 8.88227C12.7511 7.6709 13.4052 6.20658 13.7581 4.84039C13.9253 4.19323 14.0176 3.59221 14.0252 3.10232C14.0335 2.56465 13.9419 2.16954 13.7531 1.92817C12.9916 0.955163 11.874 0.433231 10.5211 0.418913C9.59108 0.408458 8.80529 0.64647 8.65296 0.713402C8.33216 0.633629 7.98244 0.584652 7.60171 0.578402C6.90352 0.567095 6.3 0.734254 5.80034 1.07499C5.5833 0.994197 5.02239 0.80164 4.33642 0.691129C3.15051 0.50022 2.20813 0.644879 1.53563 1.1213C0.733183 1.68982 0.362729 2.70607 0.43449 4.14175C0.458638 4.62477 0.733865 6.11067 1.16818 7.53369C1.73989 9.40664 2.36137 10.4669 3.01523 10.685C3.09176 10.7106 3.18 10.7284 3.27733 10.7284C3.51585 10.7284 3.8083 10.6209 4.11256 10.2551C4.48367 9.80991 4.86756 9.37552 5.26375 8.95249C5.5208 9.09045 5.80318 9.16749 6.09199 9.17522C6.09256 9.18278 6.0933 9.19033 6.09398 9.19783C6.04426 9.25712 5.99558 9.31726 5.94796 9.37823C5.74784 9.63227 5.70619 9.68516 5.06205 9.81778C4.87881 9.85562 4.39216 9.9559 4.385 10.297C4.37727 10.6698 4.96029 10.8263 5.02671 10.8429C5.25818 10.9008 5.48119 10.9294 5.69387 10.9294C6.21108 10.9294 6.66625 10.7594 7.03 10.4305C7.01881 11.7593 7.07421 13.0686 7.23375 13.4675C7.36443 13.7941 7.68364 14.5922 8.69193 14.5922C8.83989 14.5922 9.00273 14.5749 9.18188 14.5365C10.2342 14.311 10.6912 13.8458 10.868 12.8204C10.9626 12.2724 11.1249 10.9639 11.2013 10.2619C11.3624 10.3122 11.5698 10.3352 11.7941 10.3352C12.2618 10.3352 12.8015 10.2358 13.14 10.0787C13.5202 9.90209 14.2064 9.4688 14.0819 9.09232V9.09232ZM11.5759 4.34914C11.5724 4.55636 11.5439 4.74448 11.5137 4.94084C11.4811 5.15204 11.4475 5.37039 11.439 5.63545C11.4307 5.8934 11.4629 6.16158 11.494 6.42096C11.557 6.94482 11.6216 7.48414 11.3715 8.0163C11.33 7.9427 11.293 7.86663 11.2607 7.78852C11.2297 7.71317 11.1622 7.59215 11.0687 7.42465C10.7051 6.77261 9.85369 5.24567 10.2895 4.62261C10.4194 4.43715 10.7489 4.24647 11.5759 4.34914V4.34914ZM10.5734 0.838515C11.7856 0.865277 12.7444 1.31874 13.4233 2.18624C13.944 2.85164 13.3706 5.87931 11.7108 8.4913C11.6941 8.47007 11.6773 8.44892 11.6605 8.42783L11.6394 8.40158C12.0684 7.69323 11.9845 6.99238 11.9098 6.37102C11.8791 6.11602 11.8502 5.87516 11.8576 5.64891C11.8652 5.40914 11.8969 5.20346 11.9276 5.00459C11.9652 4.75954 12.0036 4.50596 11.993 4.20704C12.0009 4.17567 12.0041 4.13863 11.9999 4.09465C11.973 3.808 11.6457 2.95011 10.9786 2.17363C10.6138 1.74891 10.0816 1.27363 9.35512 0.953061C9.66762 0.888288 10.0949 0.82789 10.5734 0.838515V0.838515ZM3.79057 9.98738C3.45534 10.3904 3.22387 10.3132 3.14773 10.2878C2.65171 10.1224 2.07614 9.07397 1.56869 7.41147C1.1296 5.97295 0.873013 4.52641 0.852672 4.12079C0.788581 2.83795 1.09955 1.94391 1.77699 1.46346C2.87949 0.68164 4.6921 1.14959 5.42046 1.38692C5.41 1.39727 5.39909 1.40692 5.38875 1.41744C4.19352 2.62448 4.22188 4.68675 4.22483 4.81283C4.22472 4.86147 4.22881 4.93033 4.23438 5.02505C4.25494 5.37192 4.29324 6.01749 4.19097 6.74857C4.09597 7.42795 4.3054 8.09289 4.76546 8.57295C4.81267 8.62212 4.8623 8.66892 4.91415 8.71317C4.70938 8.93249 4.26432 9.41749 3.79057 9.98738V9.98738ZM5.06779 8.28323C4.69699 7.8963 4.52858 7.35812 4.60568 6.80653C4.71364 6.03425 4.67381 5.36164 4.65239 5.00028C4.64938 4.94971 4.64671 4.90539 4.64517 4.87045C4.81977 4.71562 5.62892 4.28209 6.20597 4.41431C6.46926 4.47459 6.62972 4.65391 6.69642 4.96232C7.04165 6.55908 6.7421 7.22459 6.50142 7.75942C6.45182 7.86959 6.40494 7.97374 6.36494 8.08147L6.33392 8.16477C6.2554 8.37533 6.18233 8.57113 6.13705 8.75704C5.74284 8.7559 5.35938 8.58749 5.06779 8.28317V8.28323ZM5.1283 10.4366C5.01318 10.4079 4.90966 10.3579 4.84892 10.3165C4.89966 10.2927 4.98994 10.2602 5.14654 10.2279C5.90432 10.0719 6.02137 9.96181 6.27693 9.63732C6.33551 9.56289 6.40193 9.47857 6.49392 9.37584L6.49404 9.37573C6.63102 9.22232 6.69369 9.24834 6.80733 9.2955C6.89943 9.33357 6.98915 9.44903 7.02551 9.57607C7.04273 9.63607 7.06205 9.74994 6.99881 9.83857C6.46494 10.5861 5.68699 10.5765 5.1283 10.4366V10.4366ZM9.09415 14.1271C8.1671 14.3257 7.83887 13.8527 7.62256 13.312C7.48296 12.9629 7.41432 11.3887 7.46301 9.65022C7.46364 9.62709 7.46034 9.60477 7.45398 9.58374C7.44829 9.54223 7.43963 9.50118 7.42807 9.4609C7.35568 9.20795 7.17926 8.99636 6.96762 8.90863C6.88352 8.8738 6.72921 8.80988 6.54375 8.85732C6.5833 8.69437 6.65188 8.51033 6.72625 8.31107L6.75744 8.22727C6.79256 8.13278 6.83665 8.03488 6.88324 7.93124C7.13512 7.3717 7.48006 6.60528 7.10568 4.87386C6.96546 4.22533 6.49716 3.90863 5.78727 3.98221C5.36171 4.02624 4.97233 4.19795 4.77813 4.29641C4.73637 4.31755 4.69818 4.338 4.6625 4.35789C4.71671 3.70448 4.92148 2.48334 5.6875 1.71073C6.16983 1.22437 6.81216 0.98414 7.59477 0.997095C9.13682 1.02232 10.1257 1.81369 10.6838 2.47317C11.1647 3.04141 11.4251 3.61386 11.529 3.92261C10.7474 3.84312 10.2159 3.99738 9.94648 4.38261C9.36029 5.22056 10.2672 6.84692 10.703 7.62857C10.783 7.77181 10.8519 7.89562 10.8736 7.94823C11.0156 8.29221 11.1993 8.52187 11.3335 8.68948C11.3746 8.74084 11.4145 8.79067 11.4448 8.8342C11.2081 8.90244 10.783 9.06011 10.8217 9.84823C10.7905 10.2437 10.5682 12.0952 10.4553 12.7493C10.3063 13.6135 9.9883 13.9354 9.09415 14.1272V14.1271ZM12.9637 9.69891C12.7216 9.81124 12.3166 9.8955 11.9318 9.91363C11.5068 9.93352 11.2905 9.86602 11.2395 9.82448C11.2157 9.33334 11.3985 9.28204 11.5919 9.22772C11.6223 9.2192 11.652 9.21084 11.6806 9.20084C11.6984 9.21533 11.7179 9.22971 11.7393 9.2438C12.0809 9.46925 12.6901 9.49357 13.5503 9.31602L13.5597 9.31414C13.4437 9.42261 13.2452 9.56817 12.9637 9.69891Z" fill="white"/>
</g>
<defs>
<clipPath id="clip0_405_67">
<rect width="14.55" height="15" fill="white"/>
</clipPath>
</defs>
</svg>
