<svg width="11" height="15" viewBox="0 0 11 15" fill="none" xmlns="http://www.w3.org/2000/svg">
<g clip-path="url(#clip0_405_48)">
<path d="M5.53349 14.9621L1.2046 13.7604L0.239902 2.94043H10.84L9.87435 13.7587L5.53349 14.9621V14.9621Z" fill="#264DE4"/>
<path d="M9.0476 13.0698L9.87281 3.82507H5.53997V14.0422L9.0476 13.0698V13.0698Z" fill="#2965F1"/>
<path d="M2.45142 7.83807L2.57034 9.1651H5.53997V7.83807H2.45142ZM2.21242 5.15216L2.33304 6.47918H5.53997V5.15216H2.21242V5.15216ZM5.53997 11.2845L5.53415 11.286L4.05626 10.887L3.96177 9.82863H2.62964L2.81554 11.9123L5.53386 12.6668L5.53997 12.6652V11.2845Z" fill="#EBEBEB"/>
<path d="M2.7346 0H4.3418V0.672133H3.40673V1.34427H4.34188V2.01636H2.7346V0ZM4.66328 0H6.27052V0.58446H5.33541V0.701343H6.27052V2.04561H4.66332V1.43186H5.59843V1.31497H4.66324V0H4.66328ZM6.59201 0H8.19925V0.58446H7.26414V0.701343H8.19925V2.04561H6.59201V1.43186H7.52712V1.31497H6.59205V0H6.59201Z" fill="black"/>
<path d="M8.62004 7.83807L8.85958 5.15216H5.5354V6.47918H7.40529L7.28454 7.83807H5.5354V9.1651H7.16949L7.01541 10.8862L5.53536 11.2856V12.6662L8.25584 11.9123L8.27579 11.688L8.58767 8.19442L8.62004 7.83807V7.83807Z" fill="white"/>
</g>
<defs>
<clipPath id="clip0_405_48">
<rect width="10.64" height="15" fill="white" transform="translate(0.219971)"/>
</clipPath>
</defs>
</svg>
