<svg width="23" height="15" viewBox="0 0 23 15" fill="none" xmlns="http://www.w3.org/2000/svg">
<g clip-path="url(#clip0_405_63)">
<path d="M7.04841 9.89816L7.71718 12.0681C7.86744 12.5608 7.9301 12.9047 7.905 13.1007C8.27076 12.1211 8.52632 11.0536 8.67172 9.89816H9.47588C9.1301 11.7792 8.67404 13.1462 8.10795 13.9989C7.66689 14.656 7.18371 14.9845 6.65755 14.9845C6.51727 14.9845 6.34431 14.9422 6.13908 14.858V14.4046C6.23936 14.4193 6.35699 14.4271 6.49229 14.4271C6.73775 14.4271 6.93559 14.3591 7.0861 14.2233C7.26632 14.0579 7.35653 13.872 7.35653 13.6659C7.35653 13.5252 7.28618 13.2364 7.1461 12.7995L6.2143 9.89816H7.04837H7.04841ZM1.93006 8.56445L3.15499 12.3018H3.16255L4.395 8.56445H5.40194C5.62242 10.4179 5.75265 12.1138 5.79262 13.651H4.94368C4.91381 12.214 4.83108 10.8628 4.69578 9.59709H4.68838L3.39563 13.651H2.74913L1.4642 9.59709H1.45663C1.36131 10.8126 1.30131 12.1639 1.27629 13.651H0.502136C0.552165 11.8424 0.677365 10.147 0.877738 8.56445H1.9301H1.93006Z" fill="#00758F"/>
<path d="M15.6525 8.48896C16.9701 8.48896 17.629 9.33077 17.629 11.0136C17.629 11.928 17.4308 12.6187 17.0349 13.0854C16.9636 13.1706 16.8847 13.2443 16.8017 13.3126L17.7341 13.7736L17.7332 13.7736L17.4021 14.3453L16.1878 13.6368C15.9866 13.6964 15.7651 13.7262 15.5237 13.7262C14.8768 13.7262 14.3935 13.5376 14.074 13.161C13.7233 12.7443 13.548 12.0884 13.548 11.1943C13.548 10.2851 13.7458 9.59694 14.1418 9.12971C14.5025 8.70232 15.0061 8.48892 15.6525 8.48892V8.48896ZM11.6175 8.49636C12.0884 8.49636 12.5167 8.62237 12.9024 8.87351L12.7065 9.31005C12.3764 9.16977 12.051 9.09932 11.7301 9.09932C11.4698 9.09932 11.2691 9.16199 11.1293 9.28809C10.9886 9.41308 10.9016 9.57391 10.9016 9.76998C10.9016 10.0713 11.1163 10.3325 11.5126 10.5533C11.6424 10.6243 11.7718 10.6961 11.9008 10.7687L11.9303 10.7853L11.9452 10.7936L11.9748 10.8103L11.9896 10.8186L12.0191 10.8353C12.3191 11.0044 12.6014 11.1658 12.6014 11.1658C12.9977 11.4471 13.1952 11.7471 13.1952 12.241C13.1952 12.6724 13.0371 13.0265 12.722 13.3036C12.4067 13.5795 11.983 13.7178 11.4525 13.7178C10.9563 13.7178 10.4754 13.5586 10.0096 13.2428L10.2275 12.8059C10.6283 13.0068 10.9911 13.1072 11.3168 13.1072C11.6223 13.1072 11.8615 13.039 12.0345 12.9043C12.2071 12.7686 12.3106 12.5794 12.3106 12.3394C12.3106 12.0374 12.1005 11.7792 11.7151 11.5626C11.5945 11.496 11.4742 11.4287 11.3543 11.3608L11.3247 11.344C11.2705 11.3134 11.2159 11.2824 11.1624 11.252L11.1333 11.2355C10.8731 11.0874 10.6481 10.9581 10.6481 10.9581C10.2628 10.6763 10.0696 10.3739 10.0696 9.87571C10.0696 9.46366 10.2137 9.13061 10.5014 8.87725C10.7898 8.62332 11.1619 8.49636 11.6175 8.49636V8.49636ZM19.1775 8.56444V13.0252H20.778V13.6509H18.3658V8.56444H19.1775ZM21.6673 13.0272V13.1329H21.4913V13.6504H21.3568V13.1329H21.174V13.0272H21.6673H21.6673ZM21.9922 13.0272L22.1612 13.452L22.3164 13.0272H22.5071V13.6504H22.3803V13.1761L22.2037 13.6504H22.1122L21.9353 13.1761H21.9285V13.6504H21.8085V13.0272H21.9923H21.9922ZM15.5696 9.11449C14.7931 9.11449 14.4047 9.75533 14.4047 11.0361C14.4047 11.7698 14.5076 12.3018 14.7131 12.6334C14.9034 12.9403 15.2015 13.0934 15.6073 13.0934C16.3838 13.0934 16.7722 12.4476 16.7722 11.1566C16.7722 10.4332 16.6693 9.90571 16.4641 9.57395C16.2735 9.26776 15.9756 9.11449 15.5697 9.11449H15.5696Z" fill="#F29111"/>
<path d="M13.5344 0.315175C13.792 -0.317748 14.6926 0.161565 15.0422 0.382653C15.1278 0.437969 15.2261 0.554831 15.3243 0.598026C15.4775 0.604043 15.6306 0.616035 15.7841 0.622439C16.072 0.690089 16.3416 0.745361 16.5685 0.874559C17.6227 1.4954 18.3089 2.12807 18.9405 3.17308C19.0755 3.39443 19.1429 3.63396 19.2532 3.87348C19.4062 4.23052 19.5781 4.6053 19.7557 4.94291C19.8352 5.10297 19.8967 5.28095 20.0071 5.41612C20.0502 5.47793 20.1727 5.49615 20.2459 5.53307C20.4482 5.63781 20.6934 5.71732 20.8837 5.84025C21.2391 6.06185 21.5827 6.32592 21.8951 6.59626C22.0115 6.70062 22.0909 6.84834 22.2018 6.95871V7.01442C22.1033 7.04463 22.0052 7.07558 21.907 7.10038C21.6925 7.15548 21.5025 7.14301 21.2944 7.19816C21.1658 7.23546 21.0061 7.28467 20.8712 7.29718L20.8837 7.30973C20.963 7.53645 21.3923 7.72083 21.5887 7.85644C21.8271 8.02853 22.0481 8.23724 22.2259 8.47694C22.2873 8.5381 22.3488 8.59376 22.4099 8.65475C22.4526 8.71655 22.4646 8.79649 22.5079 8.85159V8.87025C22.46 8.85336 22.4256 8.82112 22.3929 8.78742L22.3735 8.7671C22.354 8.74689 22.3344 8.72704 22.312 8.71066C22.1767 8.61826 22.0423 8.50771 21.907 8.42179C21.6744 8.2742 21.4046 8.18854 21.1658 8.04039C21.0307 7.95439 20.902 7.85644 20.7733 7.75801C20.6566 7.67175 20.5281 7.50611 20.4548 7.38318C20.4116 7.31528 20.4056 7.23546 20.3563 7.18634C20.3651 7.10429 20.4403 7.07992 20.5161 7.05989L20.5336 7.05529C20.5598 7.0485 20.5854 7.04171 20.6077 7.03273C20.9264 6.89743 21.3063 6.84834 21.7968 6.86063C21.7784 6.73745 21.4718 6.58397 21.374 6.51022C21.1775 6.36864 20.9696 6.22092 20.7612 6.09207C20.6508 6.02459 20.4605 5.97533 20.3382 5.92019C20.1727 5.85254 19.8048 5.78493 19.7131 5.65608C19.5573 5.45296 19.4454 5.21068 19.3367 4.96595L19.3071 4.89916C19.2973 4.8769 19.2874 4.85465 19.2775 4.83241C19.1491 4.5377 18.9895 4.23043 18.8608 3.92867C18.7935 3.78146 18.7626 3.65227 18.6889 3.51108C18.2416 2.64469 17.5796 1.91932 16.7769 1.40919C16.5131 1.2432 16.219 1.08959 15.8944 0.985189C15.7104 0.929616 15.4895 0.960347 15.2935 0.917711H15.1645C15.0544 0.886679 14.9624 0.769946 14.8765 0.708398C14.6868 0.579545 14.4967 0.493026 14.2698 0.401092C14.1903 0.364215 13.9632 0.278341 13.8839 0.345949C13.8349 0.358284 13.81 0.376808 13.7979 0.426063C13.7491 0.499559 13.792 0.610275 13.8224 0.678055C13.9145 0.874473 14.043 0.991206 14.1598 1.15719C14.2636 1.3044 14.3926 1.47039 14.4662 1.63045C14.6251 1.9745 14.6991 2.35569 14.8463 2.6997C14.9008 2.82907 14.9872 2.97628 15.0667 3.09297C15.134 3.18559 15.2565 3.25255 15.2935 3.3698C15.3673 3.49273 15.183 3.89833 15.1403 4.02714C14.9806 4.53116 15.0116 5.23178 15.1954 5.66867L15.2052 5.69171L15.215 5.71505C15.2822 5.87506 15.354 6.04737 15.5325 6.09211C15.5448 6.0799 15.5325 6.08631 15.5569 6.0799C15.6001 5.74174 15.6122 5.41608 15.7288 5.15149C15.7962 4.98606 15.9306 4.86912 16.0228 4.73407C16.0843 4.77086 16.0843 4.88179 16.1209 4.9552C16.2007 5.1456 16.2863 5.35436 16.3847 5.54532C16.5865 5.93859 16.8136 6.31986 17.0709 6.66387C17.1571 6.78675 17.2794 6.92201 17.3897 7.03268C17.4388 7.07553 17.4938 7.10029 17.5307 7.15543H17.5428V7.174C17.3589 7.10622 17.2423 6.91599 17.0957 6.80493C16.8196 6.59618 16.489 6.28268 16.2986 5.98187C16.219 5.80917 16.133 5.64366 16.0472 5.47182V5.4594C16.0105 5.50848 16.0228 5.55722 16.0045 5.63149C15.9249 5.93859 15.9862 6.28891 15.7104 6.39937C15.3977 6.52874 15.1645 6.19062 15.0667 6.03697C14.7539 5.52697 14.6683 4.66659 14.8888 3.97208C14.9378 3.81834 14.9445 3.63396 15.03 3.51121C15.0115 3.40023 14.926 3.36989 14.8765 3.30189C14.7907 3.18568 14.7173 3.05029 14.6501 2.92122C14.5211 2.6691 14.4293 2.36785 14.3313 2.09747C14.2882 1.98705 14.2759 1.87621 14.233 1.77168C14.1597 1.61214 14.0247 1.45208 13.9206 1.31093C13.7796 1.10807 13.3689 0.714888 13.5344 0.315175V0.315175ZM15.5447 1.51926C15.5611 1.53568 15.5808 1.55003 15.6013 1.56417L15.626 1.58111C15.6588 1.60389 15.6907 1.62787 15.7102 1.66053C15.7411 1.70377 15.7469 1.74645 15.784 1.78977C15.784 1.9375 15.7411 2.0357 15.6547 2.09691C15.6547 2.09691 15.6488 2.10336 15.6428 2.10937C15.5938 2.01091 15.5508 1.91295 15.5015 1.81457C15.4407 1.7287 15.3548 1.66058 15.3053 1.56245H15.2934V1.55012C15.3673 1.53185 15.4407 1.51926 15.5447 1.51926Z" fill="#00758F"/>
</g>
<defs>
<clipPath id="clip0_405_63">
<rect width="22.01" height="15" fill="white" transform="translate(0.5)"/>
</clipPath>
</defs>
</svg>
