<svg width="19" height="15" viewBox="0 0 19 15" fill="none" xmlns="http://www.w3.org/2000/svg">
<g clip-path="url(#clip0_405_82)">
<path d="M18.4066 1.82655C17.7186 2.13134 16.9889 2.33141 16.2416 2.42009C17.02 1.95358 17.6176 1.21485 17.899 0.33466C17.1591 0.773741 16.3496 1.0831 15.5054 1.24937C14.8178 0.516813 13.8382 0.0589905 12.7539 0.0589905C10.6722 0.0589905 8.98434 1.74674 8.98434 3.82837C8.98434 4.12385 9.01771 4.4115 9.08195 4.68746C5.94917 4.53021 3.17166 3.02956 1.31245 0.74899C0.988049 1.30571 0.802164 1.9533 0.802164 2.64401C0.802164 3.95181 1.46769 5.10552 2.47908 5.78153C1.88048 5.76278 1.29505 5.6011 0.771662 5.31C0.771446 5.32578 0.771446 5.34157 0.771446 5.35744C0.771446 7.18378 2.07078 8.70732 3.79513 9.05361C3.24005 9.20457 2.65781 9.22666 2.09288 9.1182C2.57252 10.6158 3.96465 11.7055 5.61408 11.736C4.32401 12.747 2.69862 13.3496 0.932643 13.3496C0.628336 13.3496 0.328336 13.3318 0.033432 13.297C1.70159 14.3665 3.68295 14.9905 5.81166 14.9905C12.7452 14.9905 16.5366 9.24667 16.5366 4.26552C16.5366 4.10203 16.533 3.93947 16.5257 3.77784C17.2636 3.24436 17.9006 2.58359 18.4066 1.82655" fill="#55ACEE"/>
</g>
<defs>
<clipPath id="clip0_405_82">
<rect width="18.38" height="15" fill="white" transform="translate(0.0300293)"/>
</clipPath>
</defs>
</svg>
