<svg width="16" height="15" viewBox="0 0 16 15" fill="none" xmlns="http://www.w3.org/2000/svg">
<g clip-path="url(#clip0_405_38)">
<path d="M10.971 5.2054L10.9655 5.20306C10.9621 5.20206 10.959 5.20032 10.9565 5.19796C10.952 5.19314 10.9486 5.18735 10.9467 5.18104C10.9448 5.17473 10.9444 5.16807 10.9455 5.16157L11.2483 3.31277L12.6679 4.73126L11.1915 5.35874C11.1874 5.36039 11.183 5.36119 11.1786 5.36109H11.1727C11.1698 5.3592 11.1671 5.35696 11.1648 5.35441C11.1099 5.2933 11.0442 5.2428 10.971 5.2054V5.2054ZM13.0302 5.09273L14.5481 6.60902C14.8634 6.92431 15.0213 7.08157 15.0788 7.26392C15.0874 7.29087 15.0945 7.31788 15.1 7.34566L11.4723 5.81097C11.4703 5.81017 11.4684 5.80939 11.4664 5.80863C11.4519 5.80277 11.4351 5.79609 11.4351 5.78126C11.4351 5.76638 11.4523 5.75935 11.4668 5.75349L11.4714 5.7515L13.0302 5.09273ZM15.0381 7.83234C14.9598 7.97941 14.807 8.13199 14.5486 8.39056L12.8371 10.0997L10.6236 9.63931L10.6119 9.63696C10.5922 9.6338 10.5715 9.63029 10.5715 9.61271C10.5631 9.52147 10.536 9.43295 10.4918 9.35265C10.4477 9.27236 10.3875 9.20202 10.315 9.14601C10.306 9.13698 10.3084 9.12292 10.311 9.10997C10.311 9.10804 10.3111 9.10611 10.3119 9.10452L10.7282 6.55154L10.7297 6.54292C10.732 6.52335 10.7356 6.50068 10.7532 6.50068C10.8424 6.48961 10.9285 6.46091 11.0065 6.41624C11.0845 6.37158 11.1528 6.31185 11.2075 6.24052C11.211 6.23659 11.2134 6.23232 11.2181 6.22997C11.2306 6.22411 11.2455 6.22997 11.2585 6.23542L15.0377 7.83234H15.0381V7.83234ZM12.4436 10.4929L9.62925 13.3041L10.1109 10.3466L10.1117 10.3427C10.1121 10.3388 10.1129 10.335 10.1141 10.3314C10.118 10.322 10.1281 10.3181 10.138 10.3141L10.1427 10.3121C10.2481 10.2672 10.3414 10.1979 10.4149 10.1099C10.4243 10.099 10.4356 10.0884 10.4501 10.0864C10.4538 10.0859 10.4577 10.0859 10.4615 10.0864L12.4431 10.4933L12.4435 10.4929H12.4436ZM9.03353 13.8991L8.7163 14.216L5.20923 9.15304C5.20796 9.15118 5.20665 9.14934 5.20531 9.14753C5.19986 9.14009 5.19394 9.13271 5.19517 9.12409C5.19552 9.11782 5.19945 9.11238 5.20378 9.10769L5.20765 9.10259C5.2182 9.08689 5.22728 9.07124 5.23707 9.05443L5.24486 9.04077L5.24603 9.0396C5.25154 9.03023 5.25658 9.0212 5.26601 9.01611C5.27421 9.01218 5.28564 9.01376 5.2946 9.0157L9.18001 9.81609C9.19091 9.81784 9.20111 9.82224 9.20978 9.82898C9.21488 9.83413 9.21605 9.83958 9.21722 9.84585C9.24436 9.94832 9.29481 10.0431 9.36465 10.1229C9.43449 10.2026 9.52182 10.2651 9.61982 10.3055C9.63078 10.311 9.62609 10.3231 9.62099 10.336C9.61845 10.3417 9.61649 10.3476 9.61513 10.3536C9.56621 10.6509 9.14638 13.2087 9.03353 13.8991V13.8991ZM8.37089 14.5607C8.1371 14.7919 7.99923 14.9143 7.84337 14.9636C7.68969 15.0121 7.52479 15.0121 7.37111 14.9636C7.18859 14.9057 7.03074 14.7484 6.71544 14.4331L3.19349 10.915L4.11341 9.48984C4.11731 9.48268 4.12266 9.47641 4.12912 9.47144C4.1389 9.46441 4.15302 9.46757 4.16474 9.47144C4.3759 9.53507 4.60257 9.5236 4.80623 9.43898C4.81677 9.43511 4.82738 9.43236 4.83564 9.4398C4.83974 9.44355 4.84343 9.44771 4.8466 9.45228L8.37089 14.5611V14.5607V14.5607ZM2.85394 10.5758L2.04599 9.7688L3.6415 9.08888C3.64558 9.08709 3.64999 9.08616 3.65445 9.08613C3.66775 9.08613 3.6756 9.09943 3.68263 9.11156C3.69869 9.13616 3.71568 9.16019 3.73361 9.18357L3.73865 9.18978C3.74333 9.19646 3.74023 9.20308 3.73554 9.20935L2.85429 10.5758H2.85394ZM1.68845 9.41161L0.666284 8.39056C0.492378 8.21689 0.366284 8.09091 0.278569 7.98257L3.38656 8.62652L3.39828 8.62845C3.4175 8.63156 3.43871 8.63507 3.43871 8.65306C3.43871 8.67263 3.41556 8.68165 3.39593 8.68904L3.38697 8.69296L1.68845 9.41161V9.41161ZM0.0999756 7.45751C0.103531 7.39175 0.115383 7.32671 0.135249 7.26392C0.193198 7.08157 0.35064 6.92431 0.666284 6.60902L1.97433 5.30238C2.57661 6.17552 3.18051 7.04753 3.78605 7.91841C3.7966 7.93247 3.80832 7.94812 3.79625 7.95984C3.73906 8.02283 3.68187 8.09167 3.64156 8.16644C3.63716 8.17599 3.63042 8.18437 3.62193 8.19064C3.61683 8.1938 3.61138 8.19263 3.60552 8.19146H3.6047L0.0999756 7.45716V7.45757V7.45751ZM2.32449 4.95263L4.0833 3.19575C4.24853 3.26812 4.85011 3.522 5.38818 3.74888C5.79552 3.92109 6.16677 4.07759 6.28349 4.12839C6.29521 4.13308 6.30582 4.13777 6.31091 4.14948C6.31402 4.15652 6.3125 4.16554 6.31091 4.17298C6.28308 4.29982 6.28722 4.43159 6.32298 4.55643C6.35874 4.68127 6.42499 4.79525 6.51576 4.88812C6.52748 4.89984 6.51576 4.91665 6.50556 4.93113L6.50005 4.93933L4.71423 7.70243C4.70955 7.71029 4.70521 7.71691 4.69736 7.722C4.68798 7.72786 4.67468 7.72511 4.66367 7.72241C4.59421 7.70424 4.52282 7.69452 4.45103 7.69347C4.38681 7.69347 4.31708 7.70519 4.2466 7.71808H4.24619C4.23839 7.71925 4.2313 7.72083 4.22509 7.71614C4.21817 7.71051 4.21221 7.70378 4.20746 7.69622L2.32449 4.95263ZM4.43855 2.84091L6.7155 0.566477C7.03074 0.251536 7.18859 0.0939185 7.37105 0.0363795C7.52475 -0.0121672 7.68968 -0.0121672 7.84337 0.0363795C8.02589 0.0939185 8.18369 0.251536 8.49898 0.566477L8.99246 1.05943L7.37304 3.56466C7.36903 3.57195 7.36357 3.57833 7.35699 3.58341C7.3472 3.59009 7.33349 3.58734 7.32171 3.58341C7.19404 3.54471 7.05886 3.53767 6.92786 3.56289C6.79685 3.58812 6.67395 3.64485 6.56978 3.7282C6.55923 3.73915 6.54353 3.73288 6.53023 3.72702C6.31871 3.63509 4.67386 2.9407 4.43849 2.84097L4.43855 2.84091ZM9.33628 1.4029L10.8316 2.89646L10.4712 5.1256V5.13146C10.4709 5.13654 10.4699 5.14156 10.4681 5.14634C10.4642 5.15413 10.4564 5.15572 10.4485 5.15806C10.3715 5.18137 10.299 5.21748 10.2339 5.26488C10.2311 5.26686 10.2285 5.26907 10.2261 5.2715C10.2218 5.27618 10.2175 5.28052 10.2104 5.28128C10.2047 5.28146 10.199 5.28052 10.1936 5.27853L7.91503 4.3115L7.91076 4.3095C7.89623 4.30365 7.879 4.29661 7.879 4.28173C7.8656 4.15488 7.82413 4.03261 7.75759 3.92378C7.74664 3.90579 7.73451 3.88704 7.74388 3.86865L9.33628 1.4029V1.4029ZM7.79638 4.76952L9.93236 5.67322C9.94408 5.67866 9.95703 5.68376 9.96212 5.69589C9.96416 5.70317 9.96416 5.71087 9.96212 5.71816C9.95585 5.7495 9.95041 5.78507 9.95041 5.82111V5.88093C9.95041 5.89581 9.93511 5.90202 9.92099 5.90788L9.91671 5.90947C9.57834 6.05384 5.16617 7.93318 5.15949 7.93318C5.15287 7.93318 5.14578 7.93318 5.13916 7.92656C5.12744 7.91484 5.13916 7.89843 5.1497 7.88349L5.15521 7.8757L6.9105 5.16075L6.91361 5.15607C6.9238 5.1396 6.93558 5.1212 6.95439 5.1212L6.97197 5.12396C7.01193 5.12941 7.0472 5.1345 7.08283 5.1345C7.34914 5.1345 7.59587 5.00501 7.7447 4.78359C7.74822 4.77773 7.75273 4.77245 7.758 4.76794C7.76855 4.76015 7.78425 4.76407 7.79638 4.76952V4.76952ZM5.35021 8.36273L10.1595 6.314C10.1595 6.314 10.1666 6.314 10.1732 6.32068C10.1994 6.34687 10.2218 6.36445 10.2433 6.38091L10.2539 6.38753C10.2637 6.39304 10.2735 6.39925 10.2743 6.40945C10.2743 6.41337 10.2743 6.41572 10.2735 6.41923L9.86146 8.9472L9.85988 8.9574C9.85718 8.97691 9.85443 8.99923 9.83603 8.99923C9.72622 9.00661 9.61987 9.04064 9.52618 9.09838C9.43249 9.15612 9.35428 9.23581 9.29832 9.33058L9.29632 9.33368C9.29087 9.34271 9.28578 9.35126 9.27675 9.35595C9.26855 9.35993 9.258 9.35835 9.24933 9.35642L5.41408 8.56616C5.41015 8.5654 5.35455 8.36314 5.35021 8.36273V8.36273Z" fill="url(#paint0_radial_405_38)"/>
</g>
<defs>
<radialGradient id="paint0_radial_405_38" cx="0" cy="0" r="1" gradientUnits="userSpaceOnUse" gradientTransform="translate(7.59998 -7.50005) scale(15)">
<stop stop-color="#20C6B7"/>
<stop offset="1" stop-color="#4D9ABF"/>
</radialGradient>
<clipPath id="clip0_405_38">
<rect width="15" height="15" fill="white" transform="translate(0.0999756)"/>
</clipPath>
</defs>
</svg>
