<svg width="15" height="15" viewBox="0 0 15 15" fill="none" xmlns="http://www.w3.org/2000/svg">
<g clip-path="url(#clip0_405_72)">
<path d="M12.7806 12.7809H10.5581V9.30024C10.5581 8.47026 10.5433 7.4018 9.40219 7.4018C8.24461 7.4018 8.06748 8.30614 8.06748 9.23983V12.7807H5.84502V5.62307H7.97859V6.60124H8.00847C8.222 6.23614 8.53054 5.93579 8.90126 5.73218C9.27197 5.52857 9.69097 5.42932 10.1136 5.44501C12.3663 5.44501 12.7816 6.92672 12.7816 8.85434L12.7806 12.7809V12.7809ZM3.3372 4.64473C2.62488 4.64485 2.04732 4.06747 2.0472 3.35514C2.04709 2.64282 2.62441 2.06526 3.33674 2.06514C4.04906 2.06497 4.62662 2.64235 4.62674 3.35467C4.6268 3.69675 4.49097 4.02483 4.24914 4.26677C4.00731 4.5087 3.67928 4.64466 3.3372 4.64473V4.64473ZM4.44849 12.7809H2.22363V5.62307H4.44843V12.7809L4.44849 12.7809ZM13.8887 0.00106119H1.10683C0.502732 -0.00573568 0.00732178 0.47819 -6.10352e-05 1.08229V13.9174C0.0070874 14.5218 0.502439 15.0062 1.10677 14.9999H13.8887C14.4943 15.0074 14.9916 14.523 14.9999 13.9174V1.0813C14.9913 0.476022 14.494 -0.00784506 13.8887 6.51011e-05" fill="#0A66C2"/>
</g>
<defs>
<clipPath id="clip0_405_72">
<rect width="15" height="15" fill="white"/>
</clipPath>
</defs>
</svg>
