<svg width="16" height="15" viewBox="0 0 16 15" fill="none" xmlns="http://www.w3.org/2000/svg">
<g clip-path="url(#clip0_405_14)">
<path d="M14.9081 6.69125L11.9519 1.57563C11.6956 1.13188 11.0662 0.766876 10.5519 0.766876H4.64561C4.13311 0.766876 3.50123 1.13188 3.24561 1.57563L0.291232 6.69125C0.0349823 7.135 0.0349823 7.86188 0.291232 8.30625L3.24436 13.4244C3.50061 13.8681 4.12998 14.2331 4.64436 14.2331H10.5537C11.0662 14.2331 11.695 13.8681 11.9537 13.4244L14.9075 8.30563C15.1637 7.86188 15.1637 7.135 14.9075 6.69125H14.9081ZM6.95998 3.59688C6.95998 3.26125 7.23373 2.9875 7.56873 2.9875C7.90373 2.9875 8.17811 3.26125 8.17811 3.59688V7.235C8.16819 7.38971 8.09974 7.53484 7.98666 7.64089C7.87359 7.74694 7.72438 7.80597 7.56936 7.80597C7.41433 7.80597 7.26512 7.74694 7.15205 7.64089C7.03898 7.53484 6.97053 7.38971 6.96061 7.235L6.95998 3.59688ZM7.56873 11.3656C6.47379 11.3641 5.42415 10.9284 4.65003 10.1541C3.8759 9.37972 3.44051 8.32994 3.43936 7.235C3.44084 6.59098 3.59223 5.95615 3.88154 5.38077C4.17086 4.80539 4.59016 4.30527 5.10623 3.92C5.16338 3.87742 5.22838 3.84655 5.2975 3.82916C5.36661 3.81176 5.43848 3.80819 5.50898 3.81864C5.57947 3.8291 5.64721 3.85337 5.70831 3.89007C5.7694 3.92677 5.82264 3.97517 5.86498 4.0325C5.90753 4.08956 5.93841 4.15444 5.95584 4.22345C5.97328 4.29245 5.97694 4.36422 5.9666 4.43464C5.95627 4.50506 5.93215 4.57275 5.89562 4.63383C5.85909 4.69492 5.81088 4.7482 5.75373 4.79063C5.12762 5.28047 4.71769 5.99559 4.61141 6.78342C4.50513 7.57125 4.71091 8.36942 5.18484 9.00767C5.65878 9.64591 6.36335 10.0737 7.14826 10.1998C7.93316 10.3258 8.73626 10.1402 9.38623 9.6825C9.76795 9.3988 10.078 9.02968 10.2914 8.60468C10.5049 8.17968 10.6159 7.7106 10.6156 7.235C10.6144 6.75763 10.5015 6.28717 10.2859 5.86122C10.0704 5.43527 9.75823 5.06565 9.37436 4.78188C9.25883 4.69623 9.18194 4.56832 9.16051 4.42612C9.13907 4.28392 9.17484 4.13902 9.25998 4.02313C9.34562 3.9076 9.47354 3.83071 9.61574 3.80927C9.75794 3.78784 9.90284 3.82361 10.0187 3.90875C10.5389 4.2936 10.9617 4.7949 11.2533 5.3725C11.5449 5.9501 11.6973 6.58796 11.6981 7.235C11.6973 8.33009 11.2619 9.38009 10.4875 10.1544C9.7132 10.9288 8.6632 11.3642 7.56811 11.365L7.56873 11.3656Z" fill="#419637"/>
</g>
<defs>
<clipPath id="clip0_405_14">
<rect width="15" height="15" fill="white" transform="translate(0.0999756)"/>
</clipPath>
</defs>
</svg>
