<svg width="16" height="15" viewBox="0 0 16 15" fill="none" xmlns="http://www.w3.org/2000/svg">
<path fill-rule="evenodd" clip-rule="evenodd" d="M8.73573 0.9375C8.64566 0.938759 8.55638 0.954588 8.47136 0.984375C9.22839 1.48219 8.33542 2.20313 8.75261 2.8125C8.72386 2.60753 8.75647 2.39864 8.84632 2.21219C8.93616 2.02574 9.07923 1.87007 9.25745 1.76484C9.39105 1.65375 9.47683 1.61391 9.44823 1.43016C9.40183 1.12922 9.00058 0.9375 8.73573 0.9375ZM9.81386 1.13156C9.70933 1.65797 9.57948 1.67719 9.1937 2.01609C9.04323 2.13472 8.93705 2.30052 8.89224 2.48681C8.84743 2.6731 8.8666 2.86905 8.94667 3.04313C7.35292 2.42438 5.31011 2.05031 3.81245 3.12094C3.27386 3.50578 2.94527 4.05844 2.28105 4.28391C1.85167 4.43109 1.4298 4.3875 1.16073 4.81312C1.06233 4.93603 1.01093 5.08996 1.01574 5.24733C1.02055 5.4047 1.08126 5.55521 1.18698 5.67188C1.26714 5.75391 1.42136 5.80641 1.48511 5.88984C1.52214 5.93672 1.5212 5.98359 1.55636 6.04594C1.61849 6.19123 1.70828 6.32305 1.82073 6.43406C1.88964 6.49078 2.12636 6.54609 2.16667 6.60656C2.2173 6.68203 2.08605 6.98156 2.1962 7.02844C2.27027 7.06266 2.4873 6.67969 2.50839 6.64594C2.46527 6.94734 2.40855 7.48219 2.74745 7.03688C2.90823 6.82547 2.91808 6.75563 3.18855 6.70875C3.36163 6.67868 3.53657 6.66051 3.71214 6.65438C4.71513 6.61929 5.69336 6.97026 6.44528 7.63496C7.1972 8.29967 7.6655 9.22747 7.7537 10.2272C7.70308 9.99281 7.39698 9.61781 7.11198 9.70688C6.99058 9.74438 6.94558 9.95391 6.86589 10.0753C6.76514 10.2293 6.64099 10.3665 6.49792 10.4822C6.52214 10.2549 6.51075 10.0253 6.46417 9.80156C6.37886 10.1522 6.20777 10.7339 5.77698 10.6397C5.63348 10.6178 5.49902 10.556 5.38895 10.4613C5.27888 10.3667 5.19764 10.243 5.15448 10.1044C5.0987 9.74812 5.47511 9.33047 4.86995 9.30094C3.65589 9.24141 3.93667 11.0269 4.65339 11.4923C4.48867 11.5106 4.32799 11.5554 4.17761 11.625C4.63289 11.8894 5.14588 12.0386 5.67195 12.0595C6.19802 12.0804 6.72124 11.9724 7.19606 11.745C7.67089 11.5175 8.08295 11.1775 8.39639 10.7545C8.70983 10.3315 8.91515 9.83829 8.99448 9.31781C9.0988 9.79446 9.0964 10.2883 8.98745 10.7639C8.92921 11.0167 8.84207 11.2619 8.72776 11.4947C8.57282 11.8092 8.36691 12.0959 8.11839 12.3431C7.9712 12.4889 7.7012 12.6356 7.60839 12.7842C8.1765 12.7089 8.73165 12.5562 9.25839 12.3305C8.71312 13.0773 7.98695 13.6733 7.14808 14.0625C8.04751 13.9989 8.91695 13.7124 9.678 13.2288C10.4391 12.7453 11.0678 12.0799 11.5075 11.2927C11.3673 12.08 11.0561 12.8269 10.5957 13.4808C11.2149 13.0663 11.7417 12.5282 12.143 11.9004C12.5443 11.2725 12.8115 10.5685 12.9278 9.8325C13.0432 10.3713 13.0762 10.9244 13.0257 11.4731C13.5344 10.7664 13.878 9.9545 14.0312 9.09733C14.1845 8.24016 14.1435 7.35953 13.9112 6.52031C13.7336 5.86793 13.4672 5.24303 13.1195 4.66312C12.9852 4.43717 12.8383 4.21901 12.6793 4.00969C12.617 3.92859 12.2837 3.63187 12.2837 3.54094C12.2809 3.55 12.2785 3.55 12.2767 3.54094C12.2767 5.06344 10.636 6.04078 9.26214 5.63297C9.78456 5.59245 10.2783 5.37804 10.6646 5.02397C11.0509 4.66991 11.3073 4.19662 11.3931 3.67969C11.469 3.13737 11.3526 2.58559 11.0641 2.12013C10.7757 1.65466 10.3333 1.3049 9.81386 1.13156V1.13156Z" fill="#EA2845"/>
</svg>
