<svg width="15" height="15" viewBox="0 0 15 15" fill="none" xmlns="http://www.w3.org/2000/svg">
<path d="M1.36359 1.59843C1.25178 1.59731 1.1441 1.64061 1.0642 1.71884C0.984309 1.79707 0.938736 1.90381 0.937499 2.01562C0.937011 2.03996 0.938895 2.0643 0.943124 2.08827L2.72812 12.9225C2.75038 13.0551 2.81863 13.1756 2.9209 13.2628C3.02317 13.3501 3.15291 13.3986 3.28734 13.3997H11.8509C11.9519 13.401 12.05 13.3661 12.1274 13.3012C12.2049 13.2364 12.2564 13.1459 12.2728 13.0462L14.0564 2.08781C14.0745 1.97783 14.0483 1.86518 13.9835 1.77445C13.9188 1.68373 13.8208 1.6223 13.7109 1.60359C13.6882 1.59985 13.6651 1.59797 13.642 1.59796L1.36359 1.59843ZM8.88 9.43077H6.14672L5.40656 5.5664H9.54234L8.88 9.43077Z" fill="#2684FF"/>
<path d="M13.4887 5.56595H9.54234L8.88 9.43032H6.14672L2.91937 13.2656C3.02129 13.355 3.15182 13.4049 3.28734 13.4063H11.8533C11.9543 13.4076 12.0524 13.3727 12.1298 13.3078C12.2072 13.243 12.2588 13.1525 12.2752 13.0528L13.4887 5.56595Z" fill="url(#paint0_linear_405_26)"/>
<defs>
<linearGradient id="paint0_linear_405_26" x1="14.213" y1="6.50272" x2="7.69234" y2="11.5931" gradientUnits="userSpaceOnUse">
<stop offset="0.18" stop-color="#0052CC"/>
<stop offset="1" stop-color="#2684FF"/>
</linearGradient>
</defs>
</svg>
