<svg width="16" height="15" viewBox="0 0 16 15" fill="none" xmlns="http://www.w3.org/2000/svg">
<path d="M13.198 7.39969C13.198 7.07571 13.0693 6.765 12.8402 6.53591C12.6111 6.30683 12.3004 6.17813 11.9764 6.17813C11.9335 6.17808 11.8906 6.18027 11.848 6.18469L13.5261 1.23563H6.395L8.07078 6.18047C8.04641 6.18047 8.02156 6.17813 7.99672 6.17813C7.70501 6.17779 7.42281 6.28186 7.20116 6.47151C6.97951 6.66115 6.83304 6.92386 6.78825 7.21211C6.74345 7.50036 6.80329 7.79512 6.95693 8.04309C7.11058 8.29105 7.34789 8.47586 7.62594 8.56406C7.36609 9.01147 7.04254 9.4187 6.66547 9.77297C6.17463 10.2422 5.59148 10.6041 4.95313 10.8356C4.59547 10.6661 4.31576 10.3668 4.17079 9.99856C4.02583 9.63028 4.0265 9.22062 4.17266 8.85281C4.20875 8.76844 4.24531 8.68313 4.28 8.59781C4.55237 8.53367 4.79447 8.378 4.96586 8.1568C5.13725 7.93561 5.22753 7.6623 5.22163 7.38255C5.21573 7.10279 5.11399 6.83353 4.93343 6.61977C4.75287 6.406 4.50441 6.26068 4.22958 6.20808C3.95475 6.15548 3.67019 6.19879 3.42346 6.33078C3.17672 6.46276 2.98275 6.67543 2.87397 6.93323C2.76518 7.19104 2.74817 7.47837 2.82577 7.74722C2.90337 8.01606 3.07088 8.25013 3.30031 8.41031C2.91039 9.11733 2.6128 9.87145 2.41484 10.6542C2.24891 11.655 2.41484 12.7167 3.27969 13.3172C5.29531 14.7145 7.48391 12.4509 9.79109 11.8823C10.6273 11.6761 11.5452 11.7094 12.2816 11.2828C12.5476 11.1313 12.777 10.9231 12.9536 10.6729C13.1301 10.4227 13.2494 10.1368 13.303 9.83531C13.352 9.54807 13.3427 9.2539 13.2758 8.9703C13.2089 8.68669 13.0857 8.41942 12.9134 8.18438C13.0972 7.96476 13.1978 7.68745 13.1975 7.40109L13.198 7.39969ZM9.21875 7.40625V7.40203C9.2191 7.19181 9.16507 6.98508 9.06191 6.80192C8.95874 6.61875 8.80996 6.46539 8.63 6.35672L9.96313 3.65625L11.2991 6.38156C11.1315 6.49294 10.9941 6.64407 10.8991 6.82148C10.8041 6.99889 10.7546 7.19706 10.7548 7.39828V7.425L9.21875 7.40625Z" fill="#C63D14"/>
<path d="M13.4966 7.39969C13.4961 7.04549 13.3721 6.70255 13.146 6.42994C12.9198 6.15734 12.6057 5.97214 12.2577 5.90625L13.9423 0.9375H5.97922L7.66672 5.91609C7.37212 5.98194 7.10381 6.13406 6.89604 6.35305C6.68826 6.57203 6.55043 6.84795 6.50013 7.1456C6.44984 7.44325 6.48936 7.74914 6.61365 8.02424C6.73793 8.29933 6.94136 8.53117 7.19797 8.69016C6.98599 9.00509 6.73945 9.29533 6.46297 9.55547C6.03499 9.96494 5.53206 10.288 4.98172 10.507C4.72345 10.3571 4.52767 10.1193 4.43009 9.83711C4.33252 9.55487 4.33964 9.24696 4.45016 8.96953L4.46891 8.92594L4.50359 8.84391C4.81601 8.73559 5.08462 8.52843 5.26875 8.25378C5.45288 7.97913 5.54251 7.65197 5.52405 7.32182C5.50559 6.99168 5.38006 6.67654 5.16646 6.42414C4.95286 6.17173 4.66282 5.99579 4.34028 5.92298C4.01774 5.85017 3.68026 5.88444 3.37894 6.02061C3.07762 6.15677 2.82887 6.38742 2.67037 6.67761C2.51187 6.96781 2.45225 7.30174 2.50054 7.62886C2.54882 7.95597 2.70239 8.25844 2.93797 8.49047C2.88734 8.59875 2.83391 8.70844 2.77906 8.82141C2.47514 9.38021 2.25408 9.98024 2.12281 10.6027C1.90484 11.9152 2.25641 12.9666 3.11234 13.5595C3.57183 13.8881 4.12293 14.064 4.68781 14.0625C5.68719 14.0625 6.69828 13.5605 7.68781 13.0692C8.37919 12.6932 9.10861 12.3918 9.86375 12.1702C10.1342 12.1036 10.4127 12.0633 10.7075 12.0206C11.3082 11.9726 11.8939 11.809 12.4325 11.5387C12.7362 11.3653 12.9981 11.1271 13.1996 10.8412C13.401 10.5552 13.5371 10.2285 13.5983 9.88406C13.6979 9.29894 13.5829 8.69754 13.2744 8.19047C13.4203 7.95237 13.4974 7.67848 13.497 7.39922L13.4966 7.39969ZM12.8998 7.39969C12.8998 7.58233 12.8457 7.76086 12.7442 7.91272C12.6427 8.06458 12.4985 8.18294 12.3298 8.25283C12.1611 8.32273 11.9754 8.34101 11.7963 8.30538C11.6171 8.26975 11.4526 8.1818 11.3234 8.05266C11.1943 7.92351 11.1063 7.75897 11.0707 7.57984C11.0351 7.40071 11.0534 7.21504 11.1233 7.0463C11.1932 6.87757 11.3115 6.73335 11.4634 6.63188C11.6152 6.53041 11.7938 6.47625 11.9764 6.47625C12.2212 6.4765 12.456 6.57387 12.6291 6.74699C12.8022 6.92012 12.8996 7.15485 12.8998 7.39969V7.39969ZM13.1094 1.53422L11.6216 5.92172C11.5578 5.93713 11.4952 5.95671 11.4341 5.98031L9.96453 2.98031L8.49031 5.9625C8.42613 5.94026 8.36051 5.92241 8.29391 5.90906L6.81125 1.53422H13.1094ZM7.99672 6.47625C8.17936 6.47625 8.3579 6.53041 8.50975 6.63188C8.66161 6.73335 8.77997 6.87757 8.84986 7.0463C8.91976 7.21504 8.93804 7.40071 8.90241 7.57984C8.86678 7.75897 8.77883 7.92351 8.64969 8.05266C8.52054 8.1818 8.356 8.26975 8.17687 8.30538C7.99774 8.34101 7.81207 8.32273 7.64334 8.25283C7.4746 8.18294 7.33038 8.06458 7.22891 7.91272C7.12744 7.76086 7.07328 7.58233 7.07328 7.39969C7.07353 7.15485 7.1709 6.92012 7.34402 6.74699C7.51715 6.57387 7.75188 6.4765 7.99672 6.47625V6.47625ZM4.00203 6.48516C4.18475 6.48525 4.36333 6.53955 4.51518 6.64118C4.66703 6.7428 4.78531 6.8872 4.85506 7.05608C4.92482 7.22496 4.9429 7.41074 4.90702 7.5899C4.87115 7.76906 4.78293 7.93355 4.65353 8.06256C4.52413 8.19156 4.35937 8.27928 4.1801 8.31461C4.00083 8.34993 3.81511 8.33128 3.64644 8.26102C3.47778 8.19075 3.33375 8.07203 3.23258 7.91987C3.13141 7.76772 3.07766 7.58897 3.07813 7.40625C3.07837 7.16142 3.17574 6.92668 3.34887 6.75356C3.52199 6.58043 3.75673 6.48306 4.00156 6.48281L4.00203 6.48516ZM13.01 9.78234C12.9637 10.0407 12.8611 10.2858 12.7095 10.5001C12.558 10.7144 12.3611 10.8928 12.133 11.0227C11.6596 11.2525 11.147 11.3907 10.6222 11.43C10.3259 11.4727 10.0198 11.5167 9.72031 11.5908C8.92294 11.8217 8.15285 12.138 7.42344 12.5344C5.94031 13.2708 4.65781 13.9069 3.45219 13.0702C2.56766 12.457 2.60844 11.3227 2.71156 10.7011C2.83292 10.1354 3.03532 9.59029 3.3125 9.0825L3.43906 8.82047C3.56498 8.8708 3.69711 8.90392 3.83188 8.91891C3.71257 9.3403 3.74591 9.79029 3.926 10.1895C4.1061 10.5887 4.42139 10.9115 4.81625 11.1009L4.93109 11.16L5.0525 11.1169C5.7297 10.8724 6.34838 10.4893 6.86891 9.99187C7.21274 9.66843 7.51477 9.30325 7.76797 8.90484C8.09193 8.95412 8.42315 8.89733 8.71219 8.74294C9.00123 8.58855 9.2326 8.34484 9.37179 8.04818C9.51097 7.75151 9.5505 7.4178 9.48449 7.09683C9.41847 6.77586 9.25044 6.48484 9.00547 6.26719L9.96078 4.33547L10.9259 6.30422C10.6513 6.56887 10.4863 6.92715 10.4638 7.30786C10.4412 7.68857 10.5627 8.06385 10.8041 8.3591C11.0455 8.65436 11.3891 8.84798 11.7667 8.9015C12.1443 8.95502 12.5282 8.86452 12.8422 8.64797C13.0163 8.99931 13.0745 9.39677 13.0086 9.78328L13.01 9.78234Z" fill="white"/>
</svg>
